<svg width="336" height="310" viewBox="0 0 336 310" fill="none" xmlns="http://www.w3.org/2000/svg">
<g clip-path="url(#clip0_113_13741)">
<path d="M293.768 74.4548H149.411C146.755 74.4548 144.601 76.6136 144.601 79.2766V228.91C144.601 231.573 146.755 233.732 149.411 233.732H293.768C296.425 233.732 298.578 231.573 298.578 228.91V79.2766C298.578 76.6136 296.425 74.4548 293.768 74.4548Z" fill="#9F8FE2"/>
<path d="M174.179 86.6532C174.179 88.9115 173.153 90.9257 171.535 92.251C170.292 93.2712 168.691 93.8903 166.952 93.8903C165.213 93.8903 163.595 93.2712 162.351 92.2249C160.751 90.8995 159.734 88.8941 159.734 86.6445C159.734 82.651 162.969 79.4074 166.952 79.4074C170.935 79.4074 174.17 82.651 174.17 86.6445L174.179 86.6532Z" fill="white"/>
<path d="M165.482 86.2259L164.656 90.8472L167.987 91.3093C167.987 91.3093 169.3 89.7747 169.257 89.5829C169.213 89.3911 168.43 87.2112 168.43 87.2112L165.491 86.2259H165.482Z" fill="#F28D95"/>
<path d="M167.291 87.6123C168.478 87.6123 169.439 86.2772 169.439 84.6303C169.439 82.9834 168.478 81.6483 167.291 81.6483C166.105 81.6483 165.143 82.9834 165.143 84.6303C165.143 86.2772 166.105 87.6123 167.291 87.6123Z" fill="#FB9F86"/>
<path d="M164.004 84.7C164.004 84.7 163.308 82.5812 164.36 81.7267C165.413 80.8722 167.422 81.0466 167.952 81.2384C168.483 81.4303 168.744 81.7965 168.744 81.7965C168.744 81.7965 169.648 81.7093 170.039 82.3981C170.431 83.0869 169.865 84.7698 169.865 84.7698C169.865 84.7698 169.596 84.7349 169.5 84.7698C169.405 84.8047 169.291 84.4123 169.291 84.4123L168.883 83.148L168.413 82.8079L167.178 82.1278C167.178 82.1278 165.952 82.2586 165.917 82.2586C165.882 82.2586 164.908 82.6684 164.908 82.6684L164.613 84.0374L164.352 84.7611L163.995 84.6826L164.004 84.7Z" fill="black"/>
<path d="M164.03 86.1039C164.03 86.1039 164.213 86.8973 164.004 87.1763C163.795 87.4554 163.117 88.0657 163.525 88.8505C163.917 89.609 163.612 89.7747 163.282 90.0624C162.96 90.3415 163.195 91.1175 163.195 91.1175C163.195 91.1175 164.76 90.4897 165.274 90.4025C165.787 90.324 165.195 89.9404 165.561 89.5916C165.9 89.2777 165.952 88.3622 165.882 88.2837C165.691 88.057 165.482 88.0221 165.169 87.6297C164.856 87.2374 164.639 86.4177 164.639 86.4177C164.639 86.4177 164.613 86.1736 164.473 86.1736C164.334 86.1736 164.021 86.1039 164.021 86.1039H164.03Z" fill="black"/>
<path d="M169.805 86.287C169.805 86.287 169.7 86.8973 169.909 87.1763C170.118 87.4554 170.796 88.0657 170.387 88.8505C169.996 89.609 170.231 89.6962 170.552 89.9753C170.874 90.2543 170.718 91.1088 170.718 91.1088C170.718 91.1088 169.152 90.481 168.639 90.3938C168.126 90.3153 168.709 89.9404 168.352 89.5829C167.987 89.2254 167.987 88.2924 167.987 88.2924C168.23 88.118 168.326 87.9436 168.639 87.5513C168.952 87.1589 169.091 86.4439 169.091 86.4439C169.091 86.4439 169.257 86.1736 169.396 86.1649C169.535 86.1649 169.813 86.2782 169.813 86.2782L169.805 86.287Z" fill="black"/>
<path d="M169.448 85.3714C169.448 87.0891 168.344 88.5889 166.952 88.5889C165.561 88.5889 164.404 87.0979 164.404 85.3714C164.404 83.645 165.534 82.2586 166.926 82.2586C168.317 82.2586 169.448 83.6537 169.448 85.3714Z" fill="#F28D95"/>
<path d="M171.535 92.251C170.292 93.2712 168.691 93.8903 166.952 93.8903C165.213 93.8903 163.595 93.2712 162.351 92.2249C162.508 91.5884 162.682 90.9693 162.83 90.7164C162.891 90.6118 162.986 90.5072 163.117 90.4112C163.543 90.0974 164.291 89.8706 164.847 89.7311C165.195 89.6439 165.474 89.5916 165.561 89.5742C165.561 89.5742 166.091 90.1322 166.978 90.1322C167.77 90.1322 168.344 89.5742 168.344 89.5742C168.431 89.6178 168.761 89.6701 169.17 89.766C169.692 89.8881 170.335 90.0799 170.735 90.3851C170.857 90.481 170.961 90.5856 171.031 90.7077C171.17 90.9693 171.361 91.5884 171.527 92.2336L171.535 92.251Z" fill="#5F3074"/>
<path d="M164.647 84.7959V86.2782C164.169 86.4613 163.378 85.7289 163.569 85.0488C163.752 84.3687 164.647 84.7959 164.647 84.7959Z" fill="#F28D95"/>
<path d="M169.318 84.8047V86.287C169.796 86.4701 170.579 85.7289 170.387 85.136C170.17 84.4646 169.318 84.796 169.318 84.796V84.8047Z" fill="#F28D95"/>
<path d="M166.552 83.0608C166.552 83.0608 166.535 83.9938 167.439 84.5082C168.344 85.0226 169.5 84.7785 169.5 84.7785L169.37 82.8079L166.761 81.4826L164.508 81.9534L164.186 83.6275L164.395 85.0314C164.395 85.0314 164.969 83.1567 166.552 83.0521V83.0608Z" fill="black"/>
<path d="M169.248 84.6652L169.318 85.2494L169.587 84.3949L169.248 84.6652Z" fill="black"/>
<path d="M240.631 85.2145H179.675C178.58 85.2145 177.684 84.3164 177.684 83.2177C177.684 82.1191 178.58 81.221 179.675 81.221H240.631C241.727 81.221 242.623 82.1191 242.623 83.2177C242.623 84.3164 241.727 85.2145 240.631 85.2145Z" fill="#8877C9"/>
<path d="M240.631 92.0854H179.675C178.58 92.0854 177.684 91.1873 177.684 90.0886C177.684 88.99 178.58 88.0919 179.675 88.0919H240.631C241.727 88.0919 242.623 88.99 242.623 90.0886C242.623 91.1873 241.727 92.0854 240.631 92.0854Z" fill="#8877C9"/>
<path d="M292.194 102.435V225.326C292.194 226.495 291.246 227.436 290.09 227.436H153.072C151.915 227.436 150.967 226.495 150.967 225.326V102.435C150.967 101.267 151.915 100.325 153.072 100.325H290.09C291.246 100.325 292.194 101.267 292.194 102.435Z" fill="white"/>
<path d="M292.194 166.61V225.326C292.194 226.495 291.246 227.436 290.09 227.436H153.072C151.915 227.436 150.967 226.495 150.967 225.326V158.51C159.786 154.943 176.249 149.694 190.686 152.955C211.601 157.681 221.977 185.731 221.977 185.731C221.977 185.731 227.951 180.177 236.396 181.328C244.84 182.479 249.867 188.286 249.867 188.286C249.867 188.286 254.494 171.58 270.539 166.758C279.471 164.081 287.141 165.145 292.194 166.61Z" fill="#65E0D1"/>
<path d="M187.703 139.737C187.703 139.737 183.38 121.217 181.11 122.682C178.841 124.147 179.858 131.645 179.858 131.645C179.858 131.645 173.014 128.925 170.509 128.768C168.013 128.611 161.899 126.492 159.682 128.105C157.464 129.718 164.282 131.645 164.282 131.645C164.282 131.645 156.351 130.224 154.681 131.645C153.011 133.066 154.681 133.982 154.681 133.982C154.681 133.982 153.481 133.729 153.942 136.04C154.403 138.35 161.343 139.196 161.343 139.196C161.343 139.196 155.794 139.466 156.342 141.42C156.899 143.364 173.344 146.311 173.344 146.311L179.849 153.051L188.711 144.995L187.703 139.745V139.737Z" fill="#F28D95"/>
<path d="M165.3 139.414C165.16 139.414 165.03 139.353 164.934 139.231C164.787 139.03 164.83 138.751 165.03 138.603L174.031 131.985C174.231 131.837 174.51 131.881 174.657 132.081C174.805 132.282 174.762 132.561 174.562 132.709L165.561 139.327C165.482 139.388 165.387 139.414 165.3 139.414Z" fill="black"/>
<path d="M222.124 139.868C222.124 139.868 217.202 142.719 216.158 146.268L215.115 149.816C215.115 149.816 209.966 149.598 207.096 153.339C204.226 157.08 207.096 164.718 207.096 164.718L252.493 181.285C252.493 181.285 258.555 177.596 258.807 170.002C259.06 162.407 255.146 159.277 255.146 159.277C255.146 159.277 256.311 154.734 255.146 149.424C253.981 144.114 247.702 142.353 247.702 142.353L222.124 139.859V139.868Z" fill="black"/>
<path d="M292.194 176.14C291.029 176.655 290.09 176.968 290.09 176.968C290.09 176.968 291.072 176.82 292.194 176.803V180.683C287.602 183.212 279.741 186.342 279.741 186.342L278.532 188.243L274.714 194.25L264.425 188.129L264.373 182.784C264.373 182.784 264.399 181.834 264.469 180.369C264.712 175.286 265.486 163.985 267.435 164.753C269.957 165.738 270.452 173.28 270.452 173.28C270.452 173.28 276.618 169.252 279.036 168.589C281.454 167.935 287.02 164.639 289.516 165.782C291.812 166.828 286.672 169.662 285.828 170.115C286.481 169.862 289.655 168.659 292.194 168.197V176.14Z" fill="#F28D95"/>
<path d="M258.373 190.745L246.849 227.436H195.764C195.791 223.12 195.912 214.436 196.53 207.26C197.382 197.276 199.339 190.745 199.339 190.745C199.339 190.745 186.728 190.693 176.745 178.895C165.665 165.799 169.622 147.27 169.622 147.27L171.787 146.006L187.059 137.165L187.729 136.772C187.729 136.772 190.781 150.331 198.643 155.405C201.052 156.966 203.539 158.03 205.835 158.745C211.027 160.384 215.21 160.28 215.21 160.28C215.21 160.28 217.176 160.419 220.255 160.881C221.194 161.021 222.229 161.195 223.351 161.404C223.481 161.422 223.603 161.448 223.725 161.474C225.481 161.797 227.421 162.215 229.447 162.738C230.125 162.904 230.812 163.096 231.517 163.288C232.647 163.61 233.778 163.968 234.917 164.36C235.248 164.465 235.578 164.578 235.909 164.7C236.404 164.875 236.892 165.058 237.379 165.25C238.274 165.59 239.161 165.956 240.031 166.357C241.718 167.107 243.353 167.953 244.901 168.903C249.589 171.763 252.667 175.704 254.676 179.454C255.668 181.293 256.398 183.081 256.938 184.676C258.12 188.19 258.373 190.745 258.373 190.745Z" fill="#5F3074"/>
<path d="M236.378 163.131C236.378 163.131 239.335 164.718 240.031 166.348C240.814 168.179 238.057 172.155 231.778 174.51C227.195 176.236 223.542 176.48 223.542 176.48C223.542 176.48 220.811 170.83 220.655 167.665C220.498 164.5 223.742 160.951 223.742 160.951L236.378 163.122V163.131Z" fill="#E0B7DF"/>
<path d="M222.29 145.701C222.29 145.701 219.533 139.248 220.055 136.415C220.585 133.581 231.778 125.254 241.162 129.779C250.545 134.305 251.024 146.747 248.841 151.865C243.205 165.04 231.891 158.806 231.891 158.806C231.891 158.806 213.819 153.043 222.29 145.701Z" fill="black"/>
<path d="M223.751 160.698V160.951L223.699 165.799L223.646 169.601C223.646 169.601 223.272 170.464 227.69 170.412C233.613 170.324 235.648 167.883 235.648 167.883L236.378 159.007L234.569 159.251L223.751 160.689V160.698Z" fill="#F28D95"/>
<path d="M223.742 160.96L223.698 165.808C226.586 165.616 231.865 164.648 234.222 160.245C234.404 159.887 234.526 159.565 234.578 159.286L223.768 160.89L223.751 160.96H223.742Z" fill="black"/>
<path d="M223.107 137.714C223.107 137.714 216.95 150.008 218.541 157.184C220.142 164.36 226.629 163.593 230.543 162.433C234.465 161.274 236.37 159.007 236.37 159.007C236.37 159.007 239.892 160.419 242.475 157.202C245.058 153.984 243.788 150.061 241.779 149.066C239.779 148.072 237.257 149.424 237.257 149.424L239.361 145.866C239.361 145.866 232.317 126.841 223.09 137.705L223.107 137.714Z" fill="#F28D95"/>
<path d="M222.846 153.792C222.646 153.792 222.464 153.662 222.411 153.452C221.698 150.697 223.733 148.029 223.82 147.916C223.968 147.724 224.255 147.689 224.446 147.837C224.646 147.985 224.681 148.273 224.525 148.465C224.507 148.491 222.672 150.898 223.272 153.226C223.333 153.47 223.194 153.714 222.951 153.775C222.916 153.784 222.872 153.792 222.838 153.792H222.846Z" fill="black"/>
<path d="M237.544 155.414C237.431 155.414 237.309 155.371 237.222 155.275C237.048 155.1 237.057 154.813 237.231 154.638L240.814 151.177C240.996 151.002 241.275 151.011 241.449 151.185C241.623 151.36 241.614 151.647 241.44 151.822L237.857 155.283C237.77 155.371 237.657 155.405 237.544 155.405V155.414Z" fill="black"/>
<path d="M241.205 154.612C241.205 154.612 241.144 154.612 241.118 154.603L238.779 154.132C238.535 154.08 238.379 153.845 238.431 153.601C238.483 153.356 238.718 153.199 238.961 153.252L241.301 153.723C241.544 153.775 241.701 154.01 241.649 154.255C241.605 154.473 241.422 154.612 241.214 154.612H241.205Z" fill="black"/>
<path d="M225.003 158.858C224.786 158.858 224.568 158.806 224.359 158.701C223.377 158.187 223.038 156.591 223.003 156.408C222.959 156.181 223.098 155.955 223.325 155.885L228.308 154.481C228.482 154.438 228.664 154.49 228.777 154.629C228.89 154.769 228.908 154.961 228.821 155.126C228.76 155.24 227.282 157.986 225.655 158.71C225.438 158.806 225.212 158.858 225.003 158.858ZM223.994 156.635C224.133 157.088 224.403 157.707 224.786 157.899C224.881 157.952 225.038 158.004 225.299 157.882C226.073 157.542 226.899 156.495 227.464 155.65L223.994 156.626V156.635Z" fill="black"/>
<path d="M231.152 144.968C230.978 144.968 230.821 144.872 230.743 144.707C230.238 143.608 228.734 143.835 228.673 143.844C228.43 143.878 228.195 143.721 228.16 143.469C228.116 143.224 228.282 142.998 228.525 142.954C228.612 142.937 230.769 142.597 231.56 144.332C231.665 144.559 231.56 144.82 231.343 144.925C231.282 144.951 231.221 144.968 231.16 144.968H231.152Z" fill="black"/>
<path d="M223.542 143.198C223.394 143.198 223.246 143.12 223.159 142.989C222.968 142.675 222.733 142.501 222.446 142.448C221.872 142.344 221.15 142.789 220.933 142.972C220.742 143.129 220.455 143.094 220.307 142.902C220.15 142.71 220.185 142.422 220.376 142.274C220.42 142.239 221.498 141.376 222.603 141.568C223.151 141.664 223.594 141.986 223.925 142.527C224.055 142.736 223.994 143.015 223.777 143.146C223.707 143.19 223.62 143.216 223.542 143.216V143.198Z" fill="black"/>
<path d="M237.265 149.433C237.265 149.433 231.917 146.355 230.117 142.309C228.316 138.254 228.343 136.266 228.343 136.266C228.343 136.266 227.421 138.821 225.394 139.344C223.368 139.868 222.124 139.868 222.124 139.868L220.672 143.495L221.916 134.732C221.916 134.732 227.473 132.09 228.195 132.116C228.917 132.151 237.987 134.226 238.492 134.802C238.996 135.377 241.544 142.64 241.544 142.64L241.596 145.866L237.274 149.424L237.265 149.433Z" fill="black"/>
<path d="M230.552 147.968C230.352 147.968 230.169 147.837 230.117 147.628C229.995 147.166 229.795 146.887 229.508 146.773C228.943 146.555 228.09 146.983 227.803 147.157C227.595 147.288 227.316 147.235 227.186 147.026C227.047 146.817 227.108 146.538 227.316 146.407C227.456 146.311 228.734 145.509 229.83 145.936C230.404 146.154 230.786 146.651 230.986 147.401C231.047 147.645 230.908 147.889 230.665 147.95C230.63 147.959 230.586 147.968 230.552 147.968Z" fill="black"/>
<path d="M223.246 146.529C223.064 146.529 222.89 146.416 222.82 146.233C222.69 145.866 222.377 145.343 222.116 145.317C221.968 145.291 221.681 145.492 221.324 146.084C221.203 146.294 220.924 146.372 220.707 146.241C220.498 146.111 220.429 145.84 220.55 145.622C221.055 144.768 221.611 144.367 222.194 144.419C223.133 144.515 223.603 145.779 223.655 145.928C223.733 146.163 223.612 146.416 223.385 146.503C223.333 146.52 223.281 146.529 223.238 146.529H223.246Z" fill="black"/>
<path d="M279.245 188.644C279.245 188.644 277.723 213.25 265.139 227.436H233.735C230.534 222.126 229.308 216.511 229.308 216.511L242.127 201.13L253.876 187.031L256.938 184.676L263.338 179.733L264.469 180.369L278.532 188.243L279.245 188.644Z" fill="#5F3074"/>
<path d="M286.176 177.989C286.115 177.989 286.046 177.971 285.985 177.945L275.844 173.254C275.618 173.149 275.523 172.888 275.627 172.661C275.731 172.434 275.992 172.339 276.218 172.443L286.359 177.134C286.585 177.239 286.681 177.5 286.576 177.727C286.498 177.893 286.341 177.989 286.167 177.989H286.176Z" fill="black"/>
<path d="M235.996 163.698C235.996 163.698 228.864 168.397 225.281 167.796C221.698 167.194 222.724 164.299 222.724 164.299L222.107 171.292L225.09 172.888L233.561 171.092L238.874 166.898L236.004 163.698H235.996Z" fill="#E0B7DF"/>
<path d="M227.569 173.69C227.569 173.69 229.604 177.84 229.134 183.709C228.664 189.577 224.185 195.471 224.185 195.471C224.185 195.471 219.898 188.434 219.994 183.709C220.089 178.983 223.698 172.888 223.698 172.888C223.698 172.888 220.298 177.997 219.098 181.276C217.906 184.563 216.306 188.766 216.306 188.766C216.306 188.766 213.819 183.874 214.915 178.773C216.011 173.673 222.098 171.283 222.098 171.283L227.569 173.681V173.69Z" fill="#E0B7DF"/>
<path d="M234.952 226.399C234.735 226.399 234.543 226.233 234.509 226.006C231.865 206.536 253.363 186.891 253.581 186.699C253.763 186.534 254.05 186.551 254.215 186.734C254.381 186.917 254.363 187.205 254.181 187.371C253.963 187.563 232.821 206.893 235.404 225.893C235.439 226.137 235.265 226.364 235.022 226.399C235.004 226.399 234.978 226.399 234.961 226.399H234.952Z" fill="#F4F3F9"/>
<path d="M199.348 191.19C199.348 191.19 199.269 191.19 199.234 191.172C199 191.111 198.852 190.858 198.921 190.623C199.008 190.309 200.991 182.889 202.044 181.067C202.165 180.849 202.444 180.779 202.652 180.901C202.87 181.023 202.939 181.302 202.818 181.511C201.826 183.238 199.808 190.78 199.782 190.858C199.73 191.059 199.548 191.19 199.348 191.19Z" fill="#F4F3F9"/>
<path d="M192.147 162.311C191.712 162.311 191.286 162.18 190.894 161.919C190.172 161.439 190.051 160.855 190.085 160.454C190.277 158.013 196.921 154.891 197.678 154.542C197.852 154.464 198.043 154.499 198.173 154.629C198.304 154.76 198.347 154.952 198.278 155.126C198.173 155.379 195.669 161.343 192.851 162.207C192.607 162.276 192.373 162.32 192.147 162.32V162.311ZM196.938 155.894C194.329 157.21 191.068 159.259 190.973 160.524C190.964 160.672 190.99 160.907 191.381 161.169C191.764 161.422 192.155 161.474 192.59 161.343C194.225 160.846 195.982 157.856 196.938 155.902V155.894Z" fill="#F4F3F9"/>
<path d="M227.351 175.303C225.829 175.303 223.368 174.143 223.055 173.995C222.907 173.899 222.838 173.803 222.811 173.69C222.62 172.87 221.75 168.72 222.985 167.508C223.22 167.281 223.638 167.046 224.299 167.212C224.82 167.351 225.203 167.674 225.386 168.153C225.96 169.618 224.533 172.304 223.899 173.385C224.89 173.821 226.647 174.483 227.525 174.388C228.447 174.292 229.482 171.362 229.438 169.601C229.438 169.356 229.63 169.147 229.873 169.138C230.117 169.121 230.325 169.33 230.334 169.574C230.378 171.144 229.482 175.076 227.621 175.277C227.534 175.286 227.447 175.294 227.36 175.294L227.351 175.303ZM223.872 168.057C223.716 168.057 223.646 168.127 223.612 168.153C223.09 168.659 223.185 170.63 223.464 172.33C224.186 170.978 224.864 169.269 224.551 168.485C224.473 168.275 224.325 168.153 224.072 168.083C223.994 168.066 223.925 168.057 223.872 168.057Z" fill="#534579"/>
<path d="M225.281 183.037C225.203 183.037 225.133 183.037 225.055 183.02C224.655 182.95 224.333 182.715 224.125 182.348C223.133 180.543 225.281 175.277 225.534 174.684C225.612 174.501 225.803 174.388 225.994 174.414C226.194 174.44 226.351 174.588 226.386 174.78C226.577 175.861 227.456 181.337 226.108 182.688C225.873 182.924 225.594 183.037 225.281 183.037ZM225.751 176.637C225.055 178.66 224.455 181.084 224.916 181.912C224.986 182.043 225.073 182.104 225.212 182.13C225.342 182.148 225.42 182.113 225.481 182.052C226.073 181.459 226.021 178.913 225.76 176.637H225.751Z" fill="#534579"/>
<path d="M335.565 229.773C335.409 229.773 335.252 229.686 335.174 229.538C334.165 227.55 333 225.527 331.713 223.539C331.582 223.338 331.643 223.068 331.843 222.937C332.043 222.806 332.313 222.859 332.443 223.068C333.756 225.082 334.93 227.131 335.957 229.145C336.061 229.363 335.983 229.625 335.765 229.729C335.704 229.764 335.635 229.773 335.565 229.773ZM327.999 218.08C327.869 218.08 327.747 218.028 327.66 217.915C326.242 216.136 324.712 214.375 323.111 212.692C322.946 212.517 322.955 212.238 323.129 212.073C323.303 211.907 323.581 211.916 323.746 212.09C325.364 213.79 326.912 215.569 328.347 217.374C328.495 217.566 328.469 217.836 328.277 217.984C328.199 218.045 328.103 218.08 328.008 218.08H327.999ZM318.424 207.983C318.319 207.983 318.215 207.948 318.137 207.87C316.441 206.361 314.641 204.879 312.788 203.467C312.597 203.318 312.562 203.048 312.701 202.856C312.849 202.664 313.119 202.63 313.31 202.769C315.18 204.19 316.998 205.69 318.711 207.216C318.893 207.373 318.902 207.652 318.746 207.835C318.659 207.931 318.537 207.983 318.424 207.983ZM307.362 199.552C307.283 199.552 307.196 199.526 307.127 199.482C305.222 198.244 303.231 197.04 301.195 195.907C300.987 195.794 300.909 195.523 301.03 195.314C301.152 195.105 301.413 195.026 301.622 195.148C303.674 196.291 305.683 197.503 307.605 198.758C307.805 198.889 307.866 199.159 307.735 199.36C307.649 199.491 307.509 199.56 307.37 199.56L307.362 199.552ZM295.221 192.777C295.16 192.777 295.09 192.759 295.038 192.733C292.977 191.757 290.846 190.815 288.698 189.943C288.472 189.856 288.368 189.594 288.455 189.376C288.542 189.149 288.803 189.045 289.02 189.132C291.186 190.013 293.334 190.954 295.412 191.94C295.63 192.044 295.725 192.306 295.621 192.524C295.543 192.681 295.386 192.777 295.23 192.777H295.221ZM282.341 187.545C282.297 187.545 282.245 187.545 282.202 187.519C280.062 186.786 277.836 186.089 275.592 185.444C275.357 185.374 275.227 185.139 275.296 184.903C275.366 184.668 275.601 184.537 275.836 184.607C278.097 185.252 280.341 185.958 282.489 186.699C282.715 186.778 282.837 187.022 282.758 187.249C282.697 187.432 282.532 187.545 282.35 187.545H282.341ZM268.965 183.752C268.965 183.752 268.904 183.752 268.87 183.743C266.695 183.264 264.399 182.828 262.06 182.444C261.825 182.409 261.66 182.183 261.703 181.947C261.738 181.712 261.973 181.546 262.199 181.59C264.556 181.973 266.861 182.418 269.052 182.898C269.287 182.95 269.435 183.185 269.383 183.421C269.339 183.621 269.157 183.761 268.957 183.761L268.965 183.752ZM154.072 182.305C153.029 182.305 151.994 182.305 150.959 182.287C150.715 182.287 150.524 182.087 150.524 181.851C150.524 181.616 150.724 181.415 150.959 181.415C153.246 181.442 155.559 181.433 157.916 181.415C158.16 181.415 158.351 181.607 158.36 181.851C158.36 182.095 158.168 182.287 157.933 182.287C156.638 182.305 155.351 182.305 154.081 182.305H154.072ZM164.882 182.148C164.647 182.148 164.456 181.965 164.447 181.721C164.447 181.476 164.63 181.285 164.874 181.276C167.169 181.215 169.483 181.136 171.822 181.049C172.066 181.049 172.266 181.224 172.274 181.468C172.283 181.712 172.101 181.912 171.857 181.921C169.518 182.008 167.196 182.087 164.9 182.148H164.891H164.882ZM144.01 182.122C141.575 182.026 139.235 181.895 137.026 181.729C136.783 181.712 136.609 181.503 136.626 181.258C136.644 181.014 136.852 180.831 137.096 180.857C139.288 181.023 141.618 181.154 144.027 181.25C144.271 181.258 144.453 181.459 144.445 181.703C144.436 181.939 144.245 182.122 144.01 182.122ZM178.78 181.642C178.545 181.642 178.354 181.459 178.345 181.224C178.336 180.979 178.519 180.779 178.762 180.77C181.067 180.665 183.38 180.561 185.711 180.456C185.946 180.439 186.155 180.631 186.163 180.875C186.172 181.119 185.989 181.319 185.746 181.328C183.415 181.433 181.102 181.546 178.797 181.642H178.78ZM255.242 181.468C255.242 181.468 255.207 181.468 255.19 181.468C252.963 181.206 250.641 180.979 248.284 180.788C248.041 180.77 247.867 180.561 247.884 180.317C247.902 180.073 248.119 179.907 248.354 179.916C250.728 180.107 253.059 180.334 255.294 180.604C255.529 180.631 255.703 180.849 255.677 181.084C255.65 181.302 255.459 181.468 255.242 181.468ZM130.139 181.04C130.139 181.04 130.104 181.04 130.086 181.04C127.669 180.735 125.347 180.369 123.19 179.951C122.955 179.907 122.799 179.68 122.842 179.436C122.885 179.201 123.12 179.044 123.355 179.087C125.503 179.497 127.799 179.863 130.199 180.168C130.434 180.195 130.608 180.413 130.573 180.657C130.547 180.875 130.356 181.04 130.139 181.04ZM192.677 180.997C192.442 180.997 192.251 180.814 192.242 180.578C192.234 180.334 192.416 180.134 192.66 180.125C194.973 180.02 197.286 179.907 199.608 179.811C199.878 179.811 200.052 179.985 200.061 180.23C200.069 180.474 199.887 180.674 199.643 180.683C197.321 180.779 195.008 180.892 192.695 180.997H192.677ZM206.583 180.404C206.348 180.404 206.157 180.221 206.148 179.985C206.148 179.741 206.331 179.541 206.566 179.532C208.888 179.445 211.21 179.375 213.523 179.305C213.767 179.305 213.967 179.488 213.967 179.733C213.967 179.977 213.784 180.177 213.541 180.177C211.227 180.238 208.905 180.317 206.592 180.404H206.575H206.583ZM241.37 180.334C239.109 180.221 236.778 180.142 234.404 180.081C234.161 180.081 233.969 179.872 233.978 179.637C233.978 179.392 234.196 179.218 234.422 179.209C236.796 179.262 239.144 179.349 241.388 179.462C241.631 179.471 241.814 179.68 241.797 179.916C241.788 180.151 241.596 180.334 241.362 180.334H241.37ZM220.498 180.029C220.263 180.029 220.063 179.837 220.063 179.602C220.063 179.358 220.255 179.166 220.489 179.157C222.446 179.131 224.394 179.113 226.334 179.113H227.456C227.699 179.113 227.89 179.314 227.89 179.549C227.89 179.794 227.699 179.985 227.456 179.985H226.334C224.394 179.985 222.446 180.003 220.498 180.029ZM116.502 178.346C116.502 178.346 116.424 178.346 116.38 178.329C114.023 177.649 111.806 176.873 109.771 176.001C109.553 175.905 109.449 175.652 109.545 175.425C109.64 175.207 109.892 175.103 110.119 175.198C112.119 176.053 114.31 176.82 116.632 177.492C116.867 177.561 116.998 177.797 116.928 178.032C116.876 178.224 116.702 178.346 116.511 178.346H116.502ZM103.779 172.818C103.7 172.818 103.613 172.792 103.544 172.748C101.57 171.484 99.6651 170.098 97.8822 168.615C97.6996 168.458 97.6735 168.188 97.8214 168.005C97.9779 167.822 98.2475 167.796 98.4301 167.944C100.187 169.4 102.065 170.769 104.005 172.016C104.205 172.147 104.266 172.417 104.135 172.618C104.048 172.748 103.909 172.818 103.77 172.818H103.779ZM93.099 163.95C92.986 163.95 92.8642 163.907 92.7859 163.811C91.2031 162.119 89.6986 160.306 88.3158 158.405C88.1766 158.213 88.2201 157.934 88.4114 157.795C88.6028 157.655 88.8811 157.69 89.0202 157.89C90.3856 159.756 91.8641 161.544 93.4208 163.209C93.586 163.384 93.5773 163.663 93.4034 163.828C93.3164 163.907 93.2121 163.95 93.1077 163.95H93.099ZM84.8892 152.737C84.7414 152.737 84.5936 152.659 84.5066 152.519C83.376 150.523 82.3237 148.413 81.3757 146.241C81.2801 146.023 81.3758 145.762 81.6019 145.666C81.8193 145.57 82.0802 145.666 82.1759 145.893C83.1064 148.038 84.1413 150.122 85.2632 152.092C85.385 152.301 85.3067 152.572 85.098 152.685C85.0284 152.72 84.9588 152.746 84.8805 152.746L84.8892 152.737ZM79.3146 139.981C79.132 139.981 78.958 139.868 78.8972 139.676C78.1927 137.496 77.5579 135.22 77.0274 132.918C76.9752 132.683 77.1143 132.447 77.3491 132.395C77.584 132.334 77.8188 132.482 77.8709 132.718C78.4015 135.002 79.0276 137.252 79.7234 139.405C79.8016 139.632 79.6712 139.876 79.4451 139.955C79.4016 139.972 79.3581 139.972 79.3146 139.972V139.981ZM76.149 126.405C75.9403 126.405 75.7489 126.248 75.7228 126.03C75.375 123.745 75.1141 121.4 74.9401 119.063C74.9227 118.819 75.1054 118.61 75.3402 118.592C75.5837 118.575 75.7924 118.758 75.8098 118.993C75.9837 121.313 76.2447 123.632 76.5925 125.899C76.6273 126.135 76.4621 126.361 76.2273 126.396C76.2012 126.396 76.1838 126.396 76.1577 126.396L76.149 126.405ZM75.088 112.497C74.8532 112.497 74.6531 112.306 74.6531 112.061V111.817C74.6531 107.658 74.9401 105.06 74.9401 105.034C74.9662 104.798 75.1749 104.615 75.4185 104.65C75.6533 104.676 75.8272 104.894 75.8011 105.13C75.8011 105.156 75.5141 107.71 75.5141 111.809V112.044C75.5141 112.288 75.3228 112.48 75.0793 112.48L75.088 112.497Z" fill="#9F8FE2"/>
<path d="M227.951 42.4895C227.829 42.4895 227.699 42.4372 227.621 42.3326C226.673 41.1903 225.09 39.368 222.968 37.1707C222.803 36.9963 222.803 36.7173 222.977 36.5516C223.151 36.386 223.42 36.386 223.594 36.5604C225.734 38.7751 227.334 40.6149 228.29 41.7745C228.447 41.9576 228.421 42.2367 228.238 42.3849C228.16 42.4547 228.056 42.4895 227.96 42.4895H227.951ZM218.272 32.4448C218.167 32.4448 218.063 32.4099 217.976 32.3315C216.263 30.7707 214.489 29.2535 212.697 27.8148C212.506 27.6666 212.48 27.3876 212.627 27.2045C212.775 27.0214 213.054 26.9865 213.236 27.1347C215.036 28.5821 216.828 30.1167 218.55 31.6862C218.724 31.8519 218.741 32.1222 218.576 32.3053C218.489 32.4012 218.376 32.4448 218.254 32.4448H218.272ZM124.077 26.6464C123.946 26.6464 123.825 26.5941 123.738 26.4895C123.59 26.3064 123.616 26.0273 123.799 25.8791C125.642 24.3794 127.512 22.9581 129.382 21.6589C129.582 21.5194 129.852 21.5717 129.991 21.7636C130.13 21.9554 130.078 22.2344 129.886 22.3739C128.043 23.6644 126.182 25.0682 124.355 26.5505C124.277 26.6203 124.181 26.6464 124.086 26.6464H124.077ZM207.401 23.7342C207.314 23.7342 207.227 23.708 207.149 23.6557C205.227 22.3216 203.27 21.0573 201.313 19.9063C201.104 19.7843 201.035 19.514 201.156 19.3134C201.278 19.1042 201.548 19.0344 201.748 19.1565C203.713 20.3162 205.696 21.5892 207.636 22.9407C207.836 23.0802 207.879 23.3505 207.749 23.551C207.662 23.6731 207.531 23.7342 207.392 23.7342H207.401ZM135.496 18.7031C135.348 18.7031 135.2 18.6246 135.122 18.4851C135 18.2758 135.07 18.0142 135.278 17.8922C137.331 16.7063 139.418 15.6164 141.488 14.666C141.705 14.5701 141.966 14.666 142.062 14.884C142.166 15.102 142.062 15.3636 141.844 15.4595C139.801 16.4012 137.731 17.4736 135.704 18.6508C135.635 18.6944 135.557 18.7118 135.487 18.7118L135.496 18.7031ZM195.408 16.6715C195.347 16.6715 195.277 16.654 195.217 16.6279C193.112 15.6077 190.973 14.6922 188.859 13.8987C188.633 13.8115 188.52 13.5674 188.607 13.3407C188.694 13.114 188.937 13.0006 189.164 13.0878C191.303 13.89 193.468 14.8229 195.599 15.8518C195.817 15.9565 195.904 16.218 195.799 16.436C195.721 16.593 195.573 16.6802 195.408 16.6802V16.6715ZM148.132 12.9221C147.95 12.9221 147.784 12.8088 147.723 12.6257C147.645 12.399 147.767 12.1461 147.993 12.0763C150.219 11.3265 152.489 10.6987 154.742 10.2104C154.977 10.1581 155.211 10.3063 155.255 10.5417C155.307 10.7772 155.159 11.0126 154.924 11.0562C152.707 11.5357 150.463 12.1548 148.271 12.896C148.228 12.9134 148.176 12.9221 148.132 12.9221ZM182.389 11.8148C182.389 11.8148 182.319 11.8148 182.276 11.7973C180.032 11.2044 177.753 10.7423 175.51 10.4109C175.275 10.3761 175.11 10.1581 175.144 9.91394C175.179 9.67852 175.397 9.50413 175.64 9.54773C177.91 9.87906 180.223 10.3586 182.502 10.9603C182.737 11.0213 182.876 11.2567 182.815 11.4921C182.763 11.684 182.589 11.8148 182.397 11.8148H182.389ZM161.708 10.0186C161.482 10.0186 161.299 9.8529 161.273 9.6262C161.247 9.39078 161.43 9.17279 161.664 9.15535C163.986 8.93737 166.352 8.86761 168.665 8.93737C168.909 8.93737 169.091 9.14664 169.091 9.38206C169.091 9.6262 168.891 9.80059 168.648 9.80931C166.369 9.73955 164.039 9.80931 161.751 10.0273C161.734 10.0273 161.725 10.0273 161.708 10.0273V10.0186Z" fill="#9F8FE2"/>
<path d="M36.7178 234.665C36.6569 234.665 36.5873 234.647 36.5265 234.621C34.4218 233.566 32.3868 232.371 30.4909 231.055C30.2909 230.915 30.2474 230.645 30.3778 230.444C30.517 230.244 30.7866 230.192 30.9866 230.331C32.8477 231.622 34.848 232.807 36.9178 233.836C37.1352 233.941 37.2222 234.202 37.1178 234.42C37.0396 234.577 36.8917 234.665 36.7265 234.665H36.7178ZM25.3337 226.747C25.2293 226.747 25.1163 226.713 25.038 226.625C23.3508 225.038 21.7593 223.295 20.2983 221.446C20.1504 221.254 20.1765 220.984 20.3678 220.836C20.5592 220.687 20.8288 220.714 20.9766 220.905C22.4116 222.719 23.977 224.428 25.6294 225.989C25.8033 226.154 25.812 226.433 25.6468 226.608C25.5598 226.695 25.4468 226.747 25.3337 226.747ZM16.6978 215.874C16.55 215.874 16.4021 215.796 16.3238 215.665C15.1585 213.703 14.0888 211.602 13.1234 209.422C13.0278 209.204 13.1234 208.942 13.3495 208.847C13.567 208.751 13.8279 208.847 13.9235 209.064C14.8715 211.209 15.9325 213.285 17.0718 215.212C17.1935 215.421 17.1239 215.682 16.9239 215.813C16.8543 215.857 16.7761 215.874 16.7065 215.874H16.6978ZM11.0536 203.161C10.871 203.161 10.697 203.048 10.6362 202.856C9.94041 200.694 9.32294 198.418 8.79243 196.099C8.74025 195.863 8.8881 195.628 9.12291 195.576C9.35772 195.523 9.59254 195.672 9.64472 195.907C10.1665 198.209 10.7753 200.458 11.4623 202.595C11.5319 202.821 11.4102 203.066 11.184 203.144C11.1406 203.161 11.0971 203.161 11.0536 203.161ZM7.95754 189.577C7.74882 189.577 7.55749 189.42 7.5314 189.202C7.20092 186.952 6.94872 184.607 6.76608 182.235C6.74869 181.991 6.93132 181.782 7.16614 181.764C7.40095 181.747 7.61837 181.93 7.63576 182.165C7.81839 184.519 8.0706 186.839 8.39238 189.071C8.42717 189.306 8.26193 189.533 8.02712 189.568C8.00972 189.568 7.98363 189.568 7.96624 189.568L7.95754 189.577ZM6.87914 175.669C6.64433 175.669 6.4443 175.477 6.4443 175.242C6.43561 174.606 6.42691 173.986 6.42691 173.367C6.42691 171.676 6.4617 169.949 6.53127 168.24C6.53997 167.996 6.77478 167.822 6.9835 167.822C7.22701 167.831 7.40965 168.04 7.40095 168.275C7.33138 169.976 7.29659 171.693 7.29659 173.367C7.29659 173.978 7.29659 174.597 7.31398 175.225C7.31398 175.469 7.12265 175.661 6.88784 175.669H6.87914ZM7.45313 161.736C7.17483 161.71 7.0009 161.5 7.01829 161.256C7.43574 156.975 7.93145 154.324 7.94015 154.298C7.98363 154.063 8.21845 153.906 8.44456 153.949C8.67938 153.993 8.83592 154.22 8.79243 154.455C8.79243 154.481 8.29672 157.097 7.88797 161.335C7.86188 161.561 7.67925 161.727 7.45313 161.727V161.736Z" fill="#9F8FE2"/>
<path d="M16.5934 145.762C14.5845 144.785 11.6102 146.59 9.33163 149.93C7.05307 146.59 4.08747 144.785 2.06982 145.762C-0.365277 146.948 -0.791419 150.601 1.51323 155.371C3.46131 159.381 9.27945 163.27 9.32293 163.279C9.37511 163.279 15.4889 159.12 17.437 155.109C19.7417 150.348 19.0198 146.956 16.5847 145.771L16.5934 145.762Z" fill="#F55463"/>
<path d="M247.115 54.8923C248.876 48.027 244.752 41.0307 237.905 39.2654C231.057 37.5002 224.079 41.6345 222.318 48.4998C220.558 55.365 224.681 62.3613 231.529 64.1266C238.376 65.8918 245.354 61.7575 247.115 54.8923Z" fill="#F7B114"/>
<path d="M229.499 46.5322C228.203 46.445 227.003 48.0581 226.498 50.3426C224.559 49.0434 222.576 48.7121 221.706 49.6799C220.654 50.8483 221.211 52.8974 223.48 54.9552C225.385 56.6903 229.351 57.5187 229.377 57.5099C229.403 57.5012 231.795 53.9437 231.968 51.3628C232.177 48.3023 231.064 46.6456 229.499 46.5322Z" fill="#AD3451"/>
<path d="M242.961 41.1001C241.665 41.0129 240.465 42.626 239.961 44.9104C238.021 43.6113 236.039 43.2799 235.169 44.2478C234.117 45.4162 234.673 47.4652 236.943 49.523C238.848 51.2582 242.813 52.0865 242.839 52.0778C242.866 52.0691 245.257 48.5116 245.431 45.9393C245.64 42.8788 244.527 41.2222 242.961 41.1088V41.1001Z" fill="#AD3451"/>
<path d="M236.186 57.9982C235.926 57.9982 235.682 57.9808 235.482 57.9459C235.238 57.9023 235.073 57.6756 235.117 57.4315C235.16 57.1873 235.386 57.0217 235.63 57.0653C235.734 57.0827 238.187 57.4664 238.978 55.4435C239.065 55.208 239.326 55.0947 239.561 55.1906C239.796 55.2778 239.9 55.5394 239.813 55.7748C239.117 57.5535 237.395 58.0157 236.178 58.0157L236.186 57.9982Z" fill="black"/>
<path d="M70.8092 146.642C105.295 146.642 133.252 118.613 133.252 84.0373C133.252 49.4615 105.295 21.4322 70.8092 21.4322C36.3229 21.4322 8.3663 49.4615 8.3663 84.0373C8.3663 118.613 36.3229 146.642 70.8092 146.642Z" fill="white"/>
<path d="M69.0872 43.5882C69.0872 43.5882 76.2621 39.7516 77.3492 45.4803C78.6015 52.1244 70.6178 52.883 70.6178 52.883L69.0872 43.5882Z" fill="#F28D95"/>
<path d="M73.2878 49.3081C73.2269 49.3081 73.1573 49.2906 73.0964 49.2645C72.8703 49.1599 72.7747 48.8896 72.879 48.6628L74.9923 44.1724C75.0967 43.9457 75.3663 43.8498 75.5924 43.9544C75.8185 44.059 75.9142 44.3293 75.8098 44.556L73.6965 49.0465C73.6182 49.2122 73.4617 49.3081 73.2878 49.3081Z" fill="black"/>
<path d="M73.94 47.9217C73.7052 47.9217 73.5139 47.7386 73.4965 47.5032C73.4791 47.259 73.6617 47.041 73.9139 47.0236L76.0447 46.8754C76.2882 46.8579 76.5056 47.041 76.523 47.2939C76.5404 47.5467 76.3577 47.756 76.1055 47.7735L73.9748 47.9217C73.9748 47.9217 73.9574 47.9217 73.94 47.9217Z" fill="black"/>
<path d="M102.787 123.946L103.613 130.538C103.613 130.538 92.8816 135.682 76.2968 137.426C62.956 138.839 45.5189 135.682 45.5189 135.682L45.8494 130.25L46.1277 125.742L46.6843 116.813L46.9626 112.306L47.1539 109.236L17.3762 106.307C17.3762 106.307 24.5945 80.1834 41.9272 70.3915C56.8247 61.986 81.8628 62.1779 90.1595 66.4504C98.4649 70.7316 105.205 81.3779 105.205 81.3779L101.535 104.894L100.909 108.931L101.039 110.004L102.196 119.255L102.779 123.937L102.787 123.946Z" fill="#594D93"/>
<path d="M111.014 43.9718C111.014 43.9718 121.094 40.58 120.007 44.2247C119.242 46.7969 115.241 47.1893 115.241 47.1893C115.241 47.1893 120.129 62.1953 118.12 63.6951C114.258 66.5725 108.197 52.2727 111.014 43.9718Z" fill="#F28D95"/>
<path d="M139.201 46.4743C139.201 46.4743 132.374 63.1544 123.999 65.1163C118.65 66.3719 111.736 55.8825 111.736 55.8825L120.555 46.7707L139.201 46.4743Z" fill="#F28D95"/>
<path d="M130.22 31.1561L119.742 30.1797C118.628 30.0758 117.641 30.8973 117.537 32.0146L115.525 53.7195C115.422 54.8367 116.241 55.8265 117.355 55.9304L127.833 56.9068C128.947 57.0106 129.935 56.1891 130.038 55.0719L132.05 33.367C132.154 32.2498 131.335 31.2599 130.22 31.1561Z" fill="#5CABC6"/>
<path d="M128.632 31.009L118.154 30.0326C117.04 29.9288 116.052 30.7503 115.949 31.8675L113.937 53.5724C113.833 54.6896 114.652 55.6795 115.767 55.7833L126.245 56.7597C127.359 56.8636 128.346 56.0421 128.45 54.9248L130.462 33.2199C130.566 32.1027 129.746 31.1129 128.632 31.009Z" fill="black"/>
<path d="M102.787 123.946C89.9247 129.762 74.3401 131.139 62.4516 131.139C54.8332 131.139 48.7368 130.573 45.8494 130.25L46.1277 125.742C52.8851 126.492 82.0889 128.994 102.205 119.255L102.787 123.937V123.946Z" fill="#5F3074"/>
<path d="M100.917 108.94L101.048 110.012C86.6982 115.889 69.6786 117.171 57.6162 117.171C53.1721 117.171 49.3977 116.997 46.6843 116.822L46.9626 112.314C57.077 112.942 80.6452 113.509 100.491 105.722L100.917 108.949V108.94Z" fill="#5F3074"/>
<path d="M49.1368 103.421L49.6151 98.8254C49.9282 98.8167 81.6019 97.4303 98.2562 91.5099L99.0041 95.8608C81.7062 102.008 50.4239 103.368 49.1368 103.412V103.421Z" fill="#5F3074"/>
<path d="M122.912 52.9789C122.816 53.9642 122.033 54.7054 121.155 54.6182C120.276 54.5397 119.633 53.6678 119.729 52.6825C119.824 51.6972 120.607 50.956 121.485 51.0432C122.364 51.1217 123.007 51.9936 122.912 52.9789Z" fill="#5CABC6"/>
<path d="M135.618 44.8612C135.618 44.8612 141.81 44.2421 139.957 41.3647C138.096 38.4873 126.929 36.9527 125.686 40.2835C124.442 43.6143 135.626 44.8612 135.626 44.8612H135.618Z" fill="#F28D95"/>
<path d="M134.87 49.9708C134.87 49.9708 141.062 49.3517 139.209 46.4743C137.348 43.5969 126.182 42.0623 124.938 45.3931C123.694 48.7239 134.878 49.9708 134.878 49.9708H134.87Z" fill="#F28D95"/>
<path d="M131.226 54.2084C132.548 54.6705 133.965 54.8274 135.339 54.5484C136.566 54.2956 137.644 53.7026 137.044 52.2988C135.852 49.5086 126.347 46.483 124.764 49.1947C123.581 51.2176 128.599 53.2841 131.226 54.1996V54.2084Z" fill="#F28D95"/>
<path d="M137.105 44.1811L128.504 43.405C128.26 43.3789 128.077 43.1609 128.095 42.9168C128.121 42.6726 128.33 42.4895 128.582 42.5069L137.139 43.2743C137.383 43.3004 137.566 43.5184 137.548 43.7625C137.531 43.998 137.331 44.1723 137.105 44.1723V44.1811Z" fill="black"/>
<path d="M135.644 49.4912L127.043 48.7152C126.799 48.689 126.616 48.471 126.634 48.2269C126.66 47.9827 126.869 47.7996 127.121 47.8171L135.678 48.5844C135.922 48.6105 136.105 48.8285 136.087 49.0727C136.07 49.3081 135.87 49.4825 135.644 49.4825V49.4912Z" fill="black"/>
<path d="M111.014 43.9718C111.014 43.9718 119.042 39.7952 120.007 44.2247C120.563 46.7707 113.11 49.2819 113.11 49.2819L111.006 43.9718H111.014Z" fill="#F28D95"/>
<path d="M71.7832 36.8045C71.7832 36.8045 76.262 28.7216 75.1227 25.417C73.9835 22.1123 69.7655 25.6088 69.7655 25.6088C69.7655 25.6088 68.2349 17.9183 63.1299 20.0982C58.0336 22.2867 52.9286 31.5903 52.9286 31.5903C52.9286 31.5903 49.1715 28.8437 45.8842 35.2786C43.0577 40.8154 44.684 43.5882 47.1539 47.1893C49.6238 50.7904 56.0507 49.5086 56.0507 49.5086L71.7832 36.8045Z" fill="#9B2F44"/>
<path d="M57.9205 60.5386L58.538 68.3861C58.538 68.3861 61.7036 69.755 65.4867 69.4847C70.5917 69.1272 72.0528 65.9446 72.0528 65.9446L71.2179 56.7457L57.9292 60.5299L57.9205 60.5386Z" fill="#F28D95"/>
<path d="M57.9205 60.5212C57.9205 60.5212 61.4514 66.6596 67.1652 65.282C71.7658 64.1746 71.2614 57.5828 71.2614 57.5828L57.9205 60.5125V60.5212Z" fill="black"/>
<path d="M71.7832 36.8045C71.7832 36.8045 76.2968 50.8776 72.7485 57.6002C68.9393 64.8024 61.6775 63.3899 58.8511 61.5762C55.0332 59.1348 53.9722 55.368 53.9722 55.368C53.9722 55.368 49.1368 56.7806 47.1539 52.9004C45.0667 48.8285 47.8323 45.1576 50.276 44.7391C52.7198 44.3206 53.0416 44.7391 53.0416 44.7391L51.9284 40.2922C51.9284 40.2922 65.4345 22.3303 71.7919 36.7958L71.7832 36.8045Z" fill="#F28D95"/>
<path d="M53.0416 44.7391C53.0416 44.7391 56.242 44.6955 59.7121 41.6525C63.7821 38.0775 62.8429 32.5407 62.8429 32.5407C62.8429 32.5407 70.757 36.5952 72.9485 42.3326C75.1401 48.0699 74.1661 28.2769 65.6867 29.4105C57.2074 30.5352 46.1103 36.665 53.0503 44.7391H53.0416Z" fill="#9B2F44"/>
<path d="M52.7547 51.3223C52.6677 51.3223 52.5721 51.2961 52.4938 51.2351L48.415 48.3054C48.215 48.1571 48.1715 47.8781 48.3106 47.6776C48.4585 47.477 48.7368 47.4334 48.9368 47.5729L53.0156 50.5026C53.2156 50.6509 53.2591 50.9299 53.12 51.1304C53.033 51.2525 52.8938 51.3223 52.7547 51.3223Z" fill="black"/>
<path d="M49.3021 52.2291C49.1803 52.2291 49.0585 52.1767 48.9716 52.0808C48.8063 51.8977 48.8237 51.61 49.0064 51.4443L51.1023 49.5609C51.2849 49.3953 51.5719 49.4127 51.7372 49.5958C51.9024 49.7789 51.885 50.0666 51.7024 50.2323L49.6064 52.1157C49.5195 52.1942 49.4151 52.2291 49.3108 52.2291H49.3021Z" fill="black"/>
<path d="M60.6948 46.5527C60.4774 46.5527 60.2861 46.3958 60.2513 46.1691L59.9034 43.7625C59.8686 43.5184 60.0339 43.2917 60.2861 43.2568C60.5383 43.2219 60.7557 43.3876 60.7905 43.6405L61.1384 46.047C61.1732 46.2912 61.0079 46.5179 60.7557 46.5527C60.7296 46.5527 60.7122 46.5527 60.6861 46.5527H60.6948Z" fill="black"/>
<path d="M69.8699 45.2361C69.6525 45.2361 69.4612 45.0792 69.4264 44.8525L69.0785 42.4459C69.0437 42.2018 69.209 41.9751 69.4612 41.9315C69.7047 41.8966 69.9308 42.0623 69.9656 42.3151L70.3135 44.7217C70.3483 44.9658 70.183 45.1925 69.9308 45.2361C69.9047 45.2361 69.8873 45.2361 69.8612 45.2361H69.8699Z" fill="black"/>
<path d="M66.9043 51.8977C66.9043 51.8977 66.8696 51.8977 66.8522 51.8977C66.6087 51.8716 66.426 51.6449 66.4521 51.4007C66.8435 47.7996 65.4346 44.9396 65.4172 44.9135C65.3041 44.6955 65.3911 44.4252 65.6172 44.3119C65.8346 44.1985 66.1042 44.2857 66.2173 44.5124C66.2782 44.6345 67.7653 47.6252 67.3392 51.5053C67.3131 51.732 67.1218 51.9064 66.8956 51.9064L66.9043 51.8977Z" fill="black"/>
<path d="M70.6091 40.0655C70.5135 40.0655 70.4265 40.0394 70.3482 39.9783C69.5046 39.368 68.0523 39.4988 68.0436 39.5075C67.8088 39.5336 67.574 39.3505 67.5566 39.1064C67.5305 38.8622 67.7131 38.6355 67.9566 38.6181C68.0262 38.6094 69.7568 38.4437 70.8787 39.2633C71.0788 39.4116 71.1222 39.6906 70.9744 39.8911C70.8874 40.0132 70.7483 40.0742 70.6091 40.0742V40.0655Z" fill="black"/>
<path d="M59.6512 41.5478C59.5208 41.5478 59.399 41.4955 59.312 41.3909C59.1468 41.1991 59.1729 40.92 59.3642 40.7544C60.4165 39.8476 62.1559 39.8824 62.2342 39.8824C62.4777 39.8824 62.6777 40.0917 62.669 40.3446C62.669 40.5887 62.4864 40.7893 62.2081 40.7805C62.1907 40.7805 60.7383 40.7544 59.9469 41.4345C59.8599 41.5042 59.7556 41.5391 59.6599 41.5391L59.6512 41.5478Z" fill="black"/>
<path d="M51.9024 44.8612C51.9024 44.8612 53.8331 49.1511 54.3897 48.9244C54.9463 48.6977 53.3721 41.792 51.685 41.6612C49.9978 41.5304 51.9024 44.8612 51.9024 44.8612Z" fill="#9B2F44"/>
<path d="M100.909 108.94C100.909 108.94 111.067 119.508 120.085 112.759C131.521 104.197 127.817 62.9626 127.817 62.9626L113.963 58.8471L105.205 81.4041L100.909 108.949V108.94Z" fill="#F28D95"/>
<path d="M100.909 109.385C100.683 109.385 100.491 109.219 100.465 108.992C98.3519 92.0766 95.2037 78.7883 95.1776 78.6575C95.1167 78.4134 95.2732 78.1692 95.508 78.1169C95.7429 78.0559 95.9864 78.2041 96.0472 78.4482C96.082 78.579 99.2303 91.911 101.352 108.879C101.387 109.123 101.204 109.35 100.961 109.385C100.944 109.385 100.926 109.385 100.909 109.385Z" fill="#F9E7BB"/>
<path d="M47.9019 109.733C47.9019 109.733 47.8497 109.733 47.8323 109.733C47.5888 109.69 47.4235 109.463 47.467 109.219L49.189 98.7644C49.2325 98.5202 49.4586 98.3546 49.7021 98.3982C49.9456 98.4418 50.1109 98.6685 50.0674 98.9126L48.3454 109.367C48.3106 109.585 48.1193 109.742 47.9019 109.742V109.733Z" fill="#F9E7BB"/>
<path d="M21.1419 106.839C21.1419 106.839 12.2103 129.814 21.855 136.31C40.7879 149.049 69.6786 114.25 69.6786 114.25L64.3562 104.798L41.9446 108.739L21.1419 106.847V106.839Z" fill="#F28D95"/>
<path d="M58.825 105.417C58.825 105.417 62.982 96.5148 63.8778 95.73C64.7736 94.9453 65.365 88.3535 67.5653 87.9872C69.7742 87.6123 68.9915 91.6755 68.9915 91.6755C68.9915 91.6755 81.1409 87.8477 82.6976 88.3534C84.2544 88.8592 83.3238 90.8908 83.3238 90.8908C83.3238 90.8908 86.7503 89.6439 87.6809 90.8908C88.6115 92.1377 85.9676 95.0674 85.9676 95.0674C85.9676 95.0674 89.0115 94.6401 87.8809 97.2908C86.7503 99.9415 77.7144 104.319 77.7144 104.319C77.7144 104.319 72.3137 117.903 62.9386 116.186C53.5721 114.468 58.8163 105.409 58.8163 105.409L58.825 105.417Z" fill="#F28D95"/>
<path d="M35.4307 113.204C35.3176 113.204 35.2046 113.195 35.1089 113.169C34.7436 113.09 34.4654 112.89 34.3088 112.576C34.1436 112.262 34.1436 111.922 34.2914 111.591C35.1437 109.794 41.4663 108.373 42.7273 108.112C42.9273 108.068 43.136 108.173 43.223 108.356C43.31 108.548 43.2578 108.765 43.1013 108.896C42.5273 109.358 37.6658 113.195 35.4307 113.195V113.204ZM40.8314 109.489C38.2311 110.178 35.4742 111.172 35.1002 111.974C35.0567 112.061 35.0654 112.105 35.1002 112.157C35.1263 112.21 35.1698 112.262 35.2915 112.288C36.2482 112.489 38.7529 110.98 40.8314 109.489Z" fill="#EA6E7D"/>
<path d="M64.7301 70.0253C60.7209 70.0253 57.0943 68.5256 57.0248 68.4994C56.7986 68.4035 56.6856 68.1419 56.7899 67.9065C56.8856 67.6798 57.1465 67.5752 57.3813 67.6711C57.5031 67.7234 69.1916 72.5365 73.1225 64.3926C73.2269 64.1659 73.4965 64.0787 73.7226 64.1833C73.9487 64.288 74.0357 64.5583 73.9313 64.785C71.9397 68.918 68.2001 70.0253 64.7388 70.0253H64.7301Z" fill="#F9E7BB"/>
<path d="M74.1835 93.0881C73.9748 93.0881 73.7835 92.9398 73.74 92.7218C73.6965 92.4777 73.853 92.2423 74.0965 92.1987L83.2368 90.4548C83.4804 90.4025 83.7152 90.5682 83.7587 90.8123C83.8021 91.0564 83.6456 91.2919 83.4021 91.3355L74.2618 93.0793C74.2618 93.0793 74.2096 93.0793 74.1748 93.0793L74.1835 93.0881Z" fill="black"/>
<path d="M78.0797 97.3257C77.871 97.3257 77.6883 97.1862 77.6449 96.9769C77.5927 96.7328 77.7405 96.4973 77.984 96.4363L85.8807 94.6401C86.1242 94.5878 86.359 94.736 86.4199 94.9802C86.4721 95.2243 86.3242 95.4597 86.0807 95.5208L78.1841 97.317C78.1841 97.317 78.1145 97.3257 78.0884 97.3257H78.0797Z" fill="black"/>
<path d="M63.8778 96.1834C63.7474 96.1834 63.6169 96.1224 63.5213 96.0091C63.3647 95.8172 63.3995 95.5295 63.5908 95.3813L68.7132 91.3267C68.9046 91.1698 69.1916 91.2047 69.3394 91.3965C69.4959 91.5883 69.4612 91.8761 69.2698 92.0243L64.1474 96.0788C64.0692 96.1398 63.9648 96.1747 63.8691 96.1747L63.8778 96.1834Z" fill="black"/>
<path d="M65.5998 56.9375C65.5128 56.9375 65.4259 56.9375 65.3389 56.9201C63.1821 56.7021 62.0689 54.3827 62.0167 54.2868C61.9472 54.1473 61.9645 53.9817 62.0428 53.8509C62.1211 53.7201 62.2689 53.6416 62.4255 53.6416H68.6176C68.7741 53.6416 68.922 53.7201 69.0002 53.8596C69.0785 53.9904 69.0872 54.156 69.0176 54.2956C68.9655 54.4089 67.6696 56.9375 65.5998 56.9375ZM63.2256 54.5484C63.6517 55.1326 64.3996 55.9261 65.4346 56.0307C66.4695 56.1441 67.3305 55.2111 67.8088 54.5484H63.2256Z" fill="black"/>
<path d="M150.976 193.282C158.046 193.282 163.778 187.536 163.778 180.448C163.778 173.359 158.046 167.613 150.976 167.613C143.906 167.613 138.174 173.359 138.174 180.448C138.174 187.536 143.906 193.282 150.976 193.282Z" fill="#F7B114"/>
<path d="M153.333 187.528C153.237 187.528 153.142 187.501 153.063 187.44C152.863 187.292 152.828 187.004 152.976 186.813C153.107 186.638 153.255 186.385 153.185 186.202C153.072 185.906 152.489 185.688 152.246 185.636C152.072 185.601 151.933 185.461 151.898 185.287C151.863 185.112 151.933 184.929 152.072 184.825C152.62 184.432 153.35 183.656 153.202 183.238C152.863 182.287 151.133 182.854 151.115 182.854C150.88 182.933 150.628 182.81 150.55 182.575C150.472 182.34 150.593 182.087 150.828 182.008C151.785 181.686 153.533 181.52 154.046 182.933C154.333 183.726 153.724 184.528 153.211 185.043C153.542 185.217 153.881 185.487 154.029 185.888C154.15 186.202 154.185 186.717 153.698 187.362C153.611 187.475 153.472 187.536 153.342 187.536L153.333 187.528Z" fill="black"/>
<path d="M153.968 177.213C153.916 177.213 153.872 177.213 153.82 177.186C153.585 177.108 153.463 176.846 153.542 176.611C153.559 176.559 154.02 175.277 155.09 174.98C155.742 174.806 156.438 175.024 157.159 175.643C157.351 175.809 157.368 176.088 157.212 176.28C157.055 176.471 156.768 176.489 156.577 176.332C156.098 175.922 155.672 175.756 155.324 175.852C154.811 175.992 154.472 176.681 154.394 176.907C154.333 177.091 154.159 177.213 153.968 177.213Z" fill="black"/>
<path d="M144.601 180.064C144.549 180.064 144.497 180.064 144.453 180.038C144.219 179.959 144.097 179.698 144.184 179.462C144.575 178.346 145.158 177.675 145.923 177.457C147.019 177.143 148.01 177.928 148.045 177.962C148.237 178.119 148.271 178.398 148.115 178.59C147.958 178.782 147.68 178.817 147.489 178.66C147.489 178.66 146.81 178.128 146.167 178.32C145.697 178.459 145.314 178.939 145.027 179.759C144.958 179.942 144.793 180.055 144.601 180.055V180.064Z" fill="black"/>
<path d="M69.4873 310.009C103.974 310.009 131.93 281.979 131.93 247.404C131.93 212.828 103.974 184.798 69.4873 184.798C35.001 184.798 7.0444 212.828 7.0444 247.404C7.0444 281.979 35.001 310.009 69.4873 310.009Z" fill="white"/>
<path d="M77.1404 203.423C76.4621 200.38 74.1661 198.296 72.018 198.784L70.8961 198.95C70.757 198.959 70.6265 198.976 70.4874 199.011C68.3393 199.491 67.1478 202.351 67.8262 205.402C68.5045 208.445 70.8005 210.529 72.9486 210.041L74.0705 209.875C74.2096 209.867 74.3401 209.841 74.4792 209.814C76.6273 209.335 77.8188 206.475 77.1404 203.423Z" fill="white"/>
<path d="M105.344 280.999C105.344 280.999 105.475 282.011 105.596 283.336C105.805 285.603 105.962 288.803 105.344 289.597C104.37 290.852 96.7603 298.238 83.7761 302.1C70.8005 305.963 49.8325 306.329 47.4322 304.498C45.0406 302.676 43.2404 297.723 43.2404 297.723C43.2404 297.723 26.5078 298.525 20.8462 290.8C15.1846 283.083 13.9496 265.252 22.916 248.868C31.8824 232.485 42.0489 229.668 42.0489 229.668C41.8489 229.45 39.7182 226.939 42.0489 222.388C45.1189 216.389 54.6419 212.683 54.6419 212.683L71.4614 211.689C71.4614 211.689 78.5319 212.203 83.7761 218.237C88.107 223.207 87.333 226.364 86.9243 227.332C86.846 227.541 86.7677 227.637 86.7677 227.637C86.7677 227.637 122.764 239.478 124.955 259.122C127.156 278.767 105.344 280.991 105.344 280.991V280.999Z" fill="#3E7F9C"/>
<path d="M86.9243 227.332C83.4369 229.546 77.8448 232.31 69.9656 234.046C55.2245 237.307 42.0576 229.677 42.0576 229.677C41.8576 229.459 39.7269 226.948 42.0576 222.396C45.1276 216.397 54.6505 212.692 54.6505 212.692L71.4701 211.698C71.4701 211.698 78.5406 212.212 83.7847 218.246C88.1157 223.216 87.3417 226.372 86.933 227.34L86.9243 227.332Z" fill="#5CABC6"/>
<path d="M57.0856 223.774C57.0856 223.774 50.4239 220.286 50.824 218.246C51.224 216.206 57.6857 214.837 61.8254 215.621C65.9651 216.406 75.7576 216.528 75.7576 220.103C75.7576 223.26 71.2614 226.303 71.2614 226.303L61.8167 223.574L57.0769 223.774H57.0856Z" fill="#534579"/>
<path d="M56.8509 213.32L57.0857 223.774C57.0857 223.774 59.0338 226.739 65.1389 227.096C69.6873 227.366 71.2614 226.303 71.2614 226.303L70.5135 221.019L69.7743 215.874L58.7033 213.694L56.8422 213.328L56.8509 213.32Z" fill="#F28D95"/>
<path d="M58.7119 213.686C58.7467 213.974 58.8598 214.305 59.0337 214.688C61.4862 219.859 67.887 220.844 70.5135 221.019L69.7742 215.874L58.7032 213.694L58.7119 213.686Z" fill="black"/>
<path d="M71.5745 191.992C71.5745 191.992 77.3404 204.975 75.3402 212.308C73.3486 219.641 66.6869 218.534 62.7038 217.147C58.7206 215.761 56.8508 213.328 56.8508 213.328C56.8508 213.328 53.146 214.619 50.6326 211.166C48.128 207.722 49.6238 203.728 51.7458 202.804C53.8591 201.88 56.3986 203.397 56.3986 203.397L54.3983 199.621C54.3983 199.621 62.5907 180.334 71.5832 191.992H71.5745Z" fill="#F28D95"/>
<path d="M71.0874 208.576C71.0439 208.576 71.0005 208.576 70.957 208.559C70.7222 208.489 70.5917 208.236 70.6613 208.001C71.3918 205.629 69.6177 203.039 69.6003 203.022C69.4611 202.821 69.5046 202.542 69.7133 202.394C69.9221 202.246 70.1917 202.298 70.3395 202.499C70.4265 202.621 72.3919 205.463 71.5223 208.262C71.4614 208.454 71.2875 208.576 71.0961 208.576H71.0874Z" fill="black"/>
<path d="M55.842 209.535C55.7203 209.535 55.6072 209.492 55.5116 209.396L51.9807 205.647C51.8067 205.463 51.8154 205.184 51.9981 205.01C52.1807 204.844 52.459 204.853 52.6329 205.027L56.1638 208.777C56.3378 208.96 56.3291 209.239 56.1464 209.413C56.0595 209.492 55.9464 209.535 55.842 209.535Z" fill="black"/>
<path d="M52.1111 208.533C51.8937 208.533 51.7024 208.376 51.6676 208.149C51.6328 207.905 51.798 207.678 52.0415 207.635L54.4853 207.268C54.7375 207.233 54.955 207.399 54.9985 207.643C55.0332 207.887 54.868 208.114 54.6245 208.158L52.1807 208.524C52.1807 208.524 52.1372 208.524 52.1111 208.524V208.533Z" fill="black"/>
<path d="M56.3986 203.388C56.3986 203.388 57.7379 204.269 58.7119 202.743C59.686 201.217 57.5553 196.7 57.5553 196.7C57.5553 196.7 61.5732 197.616 64.0605 196.282C66.5477 194.948 67.7653 191.277 67.7653 191.277C67.7653 191.277 69.5916 195.096 75.088 193.413C80.5756 191.73 81.6279 184.24 75.7663 182.715C69.9047 181.189 66.7043 183.787 66.7043 183.787C66.7043 183.787 65.9651 178.346 58.7119 181.032C52.1111 183.482 50.9979 191.765 50.9979 191.765C50.9979 191.765 47.0322 191.948 46.2668 196.273C45.5015 200.598 50.5457 203.728 50.5457 203.728C50.5457 203.728 53.4069 202.045 56.3899 203.388H56.3986Z" fill="black"/>
<path d="M65.1997 203.72C64.9736 203.72 64.7823 203.554 64.7562 203.327L64.4518 200.903C64.417 200.659 64.591 200.432 64.8432 200.397C65.0867 200.363 65.3128 200.537 65.3476 200.79L65.652 203.214C65.6868 203.458 65.5128 203.685 65.2606 203.72C65.2432 203.72 65.2258 203.72 65.1997 203.72Z" fill="black"/>
<path d="M72.3833 203.144C72.1659 203.144 71.9745 202.987 71.9397 202.76L71.5832 200.336C71.5484 200.092 71.7136 199.866 71.9658 199.831C72.2093 199.796 72.4354 199.961 72.4789 200.206L72.8355 202.63C72.8703 202.874 72.7051 203.1 72.4615 203.135C72.4355 203.135 72.4181 203.135 72.392 203.135L72.3833 203.144Z" fill="black"/>
<path d="M62.9473 199.072C62.8777 199.072 62.8081 199.055 62.7386 199.02C62.5212 198.906 62.4342 198.636 62.5472 198.418C63.443 196.674 65.6346 197.136 65.7303 197.154C65.9738 197.206 66.1216 197.442 66.0694 197.686C66.0173 197.93 65.7824 198.087 65.5389 198.034C65.4694 198.017 63.9213 197.703 63.3473 198.837C63.2691 198.994 63.1125 199.081 62.9473 199.081V199.072Z" fill="black"/>
<path d="M69.9569 197.572C69.8699 197.572 69.783 197.546 69.7047 197.494C69.496 197.354 69.4438 197.075 69.5916 196.866C69.9569 196.326 70.4265 196.02 70.9918 195.951C72.1398 195.802 73.2008 196.744 73.2443 196.788C73.4269 196.953 73.4443 197.232 73.2791 197.424C73.1138 197.607 72.8355 197.625 72.6442 197.468C72.4181 197.267 71.6962 196.77 71.0962 196.857C70.7918 196.892 70.5396 197.067 70.3222 197.389C70.2352 197.52 70.096 197.581 69.9482 197.581L69.9569 197.572Z" fill="black"/>
<path d="M112.484 262.296C112.484 262.296 117.589 259.489 118.381 266.516C119.181 273.544 116.676 279.517 110.406 280.912C106.666 281.749 106.214 279.508 106.214 279.508L112.475 262.288L112.484 262.296Z" fill="#5CABC6"/>
<path d="M115.05 278.105C114.945 278.105 114.832 278.07 114.745 277.982L110.91 274.46C110.727 274.294 110.719 274.006 110.884 273.823C111.049 273.64 111.336 273.631 111.519 273.797L115.354 277.32C115.537 277.485 115.545 277.773 115.38 277.956C115.293 278.052 115.171 278.105 115.05 278.105Z" fill="#534579"/>
<path d="M103.944 256.245C103.944 256.245 103.892 256.245 103.866 256.245C103.709 256.245 103.57 256.149 103.492 256.01C103.413 255.87 103.422 255.704 103.492 255.565C103.735 255.155 109.484 245.45 113.745 247.395C114.911 247.927 114.902 248.781 114.789 249.252C114.119 252.042 106.127 256.245 103.926 256.245H103.944ZM112.545 248.031C109.927 248.031 106.457 252.565 104.77 255.216C107.466 254.501 113.458 250.979 113.928 249.034C113.989 248.773 113.971 248.476 113.389 248.206C113.119 248.084 112.841 248.031 112.545 248.031Z" fill="#534579"/>
<path d="M101.387 255.103C101.17 255.103 100.97 254.937 100.943 254.71C99.9347 247.325 93.2121 239.408 93.1425 239.329C92.9772 239.138 93.0033 238.859 93.186 238.693C93.3773 238.527 93.6556 238.553 93.8208 238.737C94.1078 239.068 100.787 246.924 101.831 254.58C101.865 254.824 101.691 255.05 101.448 255.085C101.431 255.085 101.404 255.085 101.387 255.085V255.103Z" fill="#534579"/>
<path d="M113.336 257.413C113.336 257.413 117.163 259.489 113.389 264.52C109.614 269.56 109.136 260.962 109.136 260.962L113.336 257.405V257.413Z" fill="#F28D95"/>
<path d="M100.23 272.21C100.23 272.21 98.291 280.842 105.344 280.999C112.406 281.156 113.38 271.094 113.38 271.094L100.222 272.21H100.23Z" fill="#F28D95"/>
<path d="M118.363 270.301L112.319 269.908C112.075 269.891 111.884 269.682 111.901 269.429C111.919 269.185 112.128 268.993 112.38 269.01L118.398 269.403C118.641 269.42 118.833 269.629 118.815 269.882C118.798 270.118 118.607 270.301 118.372 270.301H118.363Z" fill="#534579"/>
<path d="M71.9397 267.022C71.9397 267.022 82.1585 255.565 86.3155 254.771C90.4813 253.969 99.6216 257.492 99.4303 258.625C99.2389 259.759 90.2378 259.663 90.2378 259.663C90.2378 259.663 93.7165 269.132 93.473 271.085C93.2295 273.039 87.8288 277.939 86.759 278.34C85.6893 278.741 83.7674 275.175 83.7674 275.175C83.7674 275.175 80.5061 278 76.5229 278.375C72.5398 278.741 69.1307 272.201 69.1307 272.201L71.931 267.022H71.9397Z" fill="#F28D95"/>
<path d="M112.095 253.266L102.53 248.868C101.513 248.4 100.31 248.847 99.8436 249.867L90.779 269.681C90.3125 270.701 90.7589 271.907 91.7761 272.374L101.341 276.773C102.358 277.241 103.561 276.793 104.028 275.773L113.092 255.96C113.559 254.94 113.112 253.734 112.095 253.266Z" fill="white"/>
<path d="M113.553 253.938L103.988 249.539C102.971 249.071 101.768 249.519 101.301 250.539L92.2366 270.352C91.77 271.372 92.2164 272.578 93.2336 273.046L102.799 277.445C103.816 277.912 105.019 277.465 105.485 276.445L114.55 256.631C115.016 255.612 114.57 254.406 113.553 253.938Z" fill="#F55463"/>
<path d="M111.71 268.06C111.71 268.06 117.937 268.225 116.45 265.13C114.963 262.035 104.074 259.114 102.422 262.27C100.77 265.418 111.71 268.06 111.71 268.06Z" fill="#F28D95"/>
<path d="M110.336 273.039C110.336 273.039 116.563 273.204 115.076 270.109C113.589 267.013 102.7 264.092 101.048 267.249C99.3955 270.397 110.336 273.039 110.336 273.039Z" fill="#F28D95"/>
<path d="M106.196 276.779C107.449 277.407 108.84 277.738 110.24 277.634C111.484 277.538 112.632 277.084 112.214 275.62C111.38 272.699 102.326 268.504 100.413 270.998C98.9867 272.855 103.7 275.532 106.196 276.77V276.779Z" fill="#F28D95"/>
<path d="M113.336 267.572C113.336 267.572 113.276 267.572 113.241 267.563L104.848 265.723C104.605 265.671 104.457 265.427 104.509 265.191C104.561 264.947 104.796 264.799 105.04 264.851L113.432 266.691C113.676 266.743 113.823 266.987 113.771 267.223C113.728 267.432 113.536 267.58 113.336 267.58V267.572Z" fill="black"/>
<path d="M111.214 272.664C111.214 272.664 111.154 272.664 111.119 272.655L102.726 270.815C102.483 270.763 102.335 270.519 102.387 270.283C102.439 270.039 102.683 269.891 102.918 269.943L111.31 271.783C111.554 271.835 111.701 272.079 111.649 272.315C111.606 272.524 111.414 272.672 111.214 272.672V272.664Z" fill="black"/>
<path d="M68.1566 262.296C68.1566 262.296 73.1051 261.642 73.94 262.819C74.7749 263.988 78.1753 280.101 75.662 280.921C73.1399 281.74 70.757 282.586 70.757 282.586C70.757 282.586 64.5823 276.744 68.1653 262.296H68.1566Z" fill="#5CABC6"/>
<path d="M105.344 289.588C104.37 290.844 96.7603 298.229 83.776 302.092C70.8004 305.954 49.8325 306.32 47.4322 304.489C45.0406 302.667 43.2404 297.714 43.2404 297.714C43.2404 297.714 55.2158 302.057 73.94 298.194C92.3685 294.384 105.196 283.659 105.588 283.319C105.796 285.586 105.953 288.786 105.335 289.579L105.344 289.588Z" fill="#5CABC6"/>
<path d="M64.2866 235.659C50.4674 234.883 45.1102 231.709 44.884 231.578C44.6753 231.447 44.6057 231.177 44.7362 230.959C44.8666 230.75 45.1363 230.68 45.3537 230.811C45.4059 230.845 50.7892 234.011 64.3126 234.769C64.5562 234.787 64.7475 234.996 64.7388 235.24C64.7214 235.484 64.5301 235.667 64.2953 235.667L64.2866 235.659Z" fill="#534579"/>
<path d="M64.6692 251.423C64.4083 251.423 64.2083 251.205 64.217 250.961L64.5997 239.739C64.5997 239.495 64.8258 239.312 65.0606 239.303C65.3041 239.303 65.5041 239.521 65.4954 239.765L65.1128 250.987C65.1128 251.231 64.9041 251.423 64.6692 251.423Z" fill="#534579"/>
<path d="M82.9064 248.031C82.7499 248.031 82.602 247.953 82.5237 247.813L76.9404 238.353C76.8186 238.135 76.8882 237.865 77.0969 237.734C77.3144 237.603 77.584 237.681 77.7144 237.891L83.2977 247.351C83.4195 247.569 83.3499 247.84 83.1412 247.97C83.0716 248.014 82.9934 248.031 82.9151 248.031H82.9064Z" fill="#534579"/>
<path d="M82.9064 230.131C82.7411 230.131 82.5933 230.043 82.5063 229.886C82.3932 229.668 82.4715 229.398 82.6976 229.276L86.559 227.236C86.7764 227.114 87.046 227.201 87.1678 227.428C87.2808 227.645 87.2026 227.916 86.9764 228.038L83.1151 230.078C83.0455 230.113 82.9759 230.131 82.9064 230.131Z" fill="#534579"/>
<path d="M67.9218 262.567C67.9218 262.567 67.8349 262.567 67.7914 262.549C67.6609 262.514 54.7462 258.713 35.8916 260.352C35.6394 260.369 35.4307 260.186 35.4046 259.942C35.3872 259.698 35.5698 259.48 35.8133 259.454C54.8506 257.797 67.9218 261.651 68.0523 261.686C68.2871 261.756 68.4263 262.009 68.3567 262.244C68.2958 262.436 68.1219 262.567 67.9305 262.567H67.9218Z" fill="#534579"/>
<path d="M44.971 259.933C44.9014 259.933 44.8406 259.916 44.7797 259.89C44.0057 259.524 37.2222 256.219 36.9265 253.403C36.8743 252.932 36.9874 252.234 37.7788 251.632C38.431 251.135 39.1355 250.987 39.866 251.214C42.8316 252.103 45.2928 259.044 45.3972 259.34C45.458 259.515 45.4059 259.707 45.2754 259.82C45.1884 259.898 45.0841 259.933 44.971 259.933ZM39.2051 252.007C38.9007 252.007 38.605 252.121 38.318 252.339C37.8136 252.722 37.7875 253.071 37.8136 253.307C37.9875 254.989 41.8054 257.335 44.1361 258.564C43.2143 256.297 41.3792 252.6 39.6051 252.068C39.466 252.025 39.3355 252.007 39.2051 252.007Z" fill="#534579"/>
<path d="M87.0895 275.637H83.776C83.5847 275.637 83.4108 275.515 83.3499 275.323C83.289 275.14 83.3499 274.931 83.5151 274.817L86.472 272.672C86.6721 272.533 86.9504 272.568 87.0982 272.777C87.2461 272.978 87.1939 273.257 86.9938 273.405L85.1588 274.739H87.0808C87.3243 274.739 87.533 274.939 87.533 275.192C87.533 275.445 87.333 275.646 87.0808 275.646L87.0895 275.637Z" fill="black"/>
<path d="M90.2465 260.116H84.8371C84.5936 260.116 84.3848 259.916 84.3848 259.663C84.3848 259.41 84.5849 259.21 84.8371 259.21H90.2465C90.49 259.21 90.6987 259.41 90.6987 259.663C90.6987 259.916 90.4987 260.116 90.2465 260.116Z" fill="black"/>
<path d="M54.5897 305.701C54.4071 305.701 54.2418 305.597 54.1723 305.414L52.0155 299.964C51.9285 299.729 52.0328 299.476 52.2677 299.38C52.4938 299.293 52.7547 299.397 52.8503 299.633L55.0071 305.082C55.0941 305.318 54.9897 305.571 54.7549 305.666C54.7028 305.684 54.6419 305.701 54.5897 305.701Z" fill="#534579"/>
<path d="M60.2165 305.701C60.0165 305.701 59.8338 305.571 59.7816 305.37L58.3554 299.92C58.2945 299.676 58.4337 299.432 58.6772 299.371C58.912 299.31 59.1642 299.45 59.2251 299.694L60.6513 305.143C60.7122 305.387 60.5731 305.632 60.3296 305.693C60.2948 305.701 60.2513 305.71 60.2165 305.71V305.701Z" fill="#534579"/>
<path d="M102.813 292.134C102.57 292.134 102.37 291.942 102.361 291.698L102.222 285.9C102.222 285.647 102.413 285.446 102.657 285.438C102.892 285.411 103.109 285.629 103.118 285.873L103.257 291.672C103.257 291.925 103.066 292.125 102.822 292.134H102.813Z" fill="#534579"/>
<path d="M98.0301 295.735C97.7865 295.735 97.5778 295.535 97.5778 295.282V289.135C97.5778 288.882 97.7778 288.681 98.0301 288.681C98.2823 288.681 98.4823 288.882 98.4823 289.135V295.282C98.4823 295.535 98.2823 295.735 98.0301 295.735Z" fill="#534579"/>
<path d="M68.748 278.898C68.5306 278.898 68.3393 278.741 68.3045 278.523C68.261 278.279 68.4262 278.043 68.6698 278.009L76.062 276.77C76.3142 276.727 76.5403 276.893 76.5751 277.137C76.6186 277.381 76.4534 277.616 76.2099 277.651L68.8176 278.889C68.8176 278.889 68.7654 278.889 68.7393 278.889L68.748 278.898Z" fill="#534579"/>
<path d="M67.5566 273.919C67.3391 273.919 67.1478 273.762 67.113 273.544C67.0695 273.3 67.2348 273.065 67.4783 273.03L75.5837 271.678C75.8359 271.635 76.062 271.8 76.0968 272.045C76.1403 272.289 75.975 272.524 75.7315 272.559L67.6261 273.911C67.6261 273.911 67.574 273.911 67.5479 273.911L67.5566 273.919Z" fill="#534579"/>
<path d="M43.2404 298.177C43.023 298.177 42.8404 298.02 42.7969 297.802C42.7534 297.557 42.9186 297.322 43.1621 297.278C61.3384 294.07 70.3048 282.429 70.3917 282.307C70.5396 282.107 70.8266 282.072 71.0179 282.22C71.2179 282.368 71.2527 282.647 71.1049 282.848C71.0179 282.97 61.8602 294.881 43.3187 298.159C43.2926 298.159 43.2665 298.159 43.2404 298.159V298.177Z" fill="#534579"/>
<path d="M59.2599 207.233C59.6512 210.329 58.2076 213.067 56.0247 213.346C53.8418 213.625 51.7458 211.34 51.3545 208.245C50.9544 205.149 52.4068 202.412 54.5897 202.133C56.7726 201.854 58.8685 204.138 59.2599 207.233Z" fill="white"/>
<path d="M54.5897 202.133L53.0765 202.438L54.5114 213.651L56.0247 213.346L57.6684 211.567L58.1467 205.35L54.5897 202.133Z" fill="white"/>
<path d="M57.7466 207.539C58.138 210.634 56.6943 213.372 54.5114 213.651C52.3285 213.93 50.2326 211.645 49.8412 208.55C49.4412 205.455 50.8936 202.717 53.0764 202.438C55.2593 202.159 57.3553 204.443 57.7466 207.539Z" fill="#F55463"/>
<path d="M51.9806 188.243C51.9806 188.243 50.3109 190.248 49.8412 192.009C49.3716 193.771 52.1024 204.914 52.1024 204.914L55.555 204.129L51.9806 188.243Z" fill="#F55463"/>
<path d="M67.9914 212.247C66.3912 212.247 65.2432 211.07 64.8084 210.338C64.6866 210.12 64.7562 209.849 64.9649 209.727C65.1737 209.605 65.452 209.666 65.5824 209.884C65.6259 209.963 66.7304 211.768 68.635 211.271C68.8698 211.201 69.122 211.349 69.1829 211.593C69.2437 211.837 69.1046 212.081 68.8611 212.142C68.5567 212.221 68.2697 212.256 67.9914 212.256V212.247Z" fill="black"/>
</g>
<defs>
<clipPath id="clip0_113_13741">
<rect width="336" height="310" fill="white"/>
</clipPath>
</defs>
</svg>
