<svg width="22" height="24" viewBox="0 0 22 24" fill="none" xmlns="http://www.w3.org/2000/svg">
<path d="M9.6334 24C9.19409 23.8782 8.86164 23.6038 8.54745 23.2925C7.35099 22.1083 6.14813 20.9305 4.94756 19.7499C4.57264 19.3811 4.30914 18.9557 4.23973 18.427C4.14931 17.7361 4.34202 17.1269 4.83431 16.6382C6.1833 15.2977 7.5437 13.9676 8.91279 12.6464C9.23473 12.3356 9.64391 12.1846 10.1074 12.3109C10.5965 12.4443 10.9171 12.8908 10.9486 13.4977C10.9691 13.8935 10.9632 14.291 10.9586 14.6877C10.9573 14.8202 11.0007 14.8633 11.1354 14.8835C13.1584 15.1939 15.0896 14.9087 16.9286 14.0269C18.242 13.3971 19.3508 12.5135 20.2605 11.3886C20.3504 11.2772 20.4358 11.1618 20.5349 11.0589C20.7555 10.8293 21.0592 10.7705 21.3249 10.8949C21.5916 11.0198 21.7697 11.2943 21.7108 11.5948C21.5779 12.2763 21.4642 12.9676 21.2551 13.628C20.6692 15.4774 19.6453 17.0739 18.2146 18.4068C16.8204 19.7054 15.2006 20.6317 13.3388 21.1093C12.6433 21.2876 11.9218 21.3667 11.2116 21.4897C11.1377 21.5028 11.0623 21.5095 10.9609 21.5225C10.9609 21.8496 10.981 22.1703 10.955 22.4875C10.9312 22.7745 10.8865 23.0665 10.7979 23.3396C10.6842 23.6914 10.3791 23.871 10.0439 24H9.63295H9.6334Z" fill="#898BA2"/>
<path d="M12.3785 -0.000200195C12.8301 0.133218 13.1681 0.42521 13.4923 0.746401C14.6778 1.92021 15.8688 3.08863 17.0598 4.2566C17.5858 4.77275 17.848 5.38234 17.7667 6.11951C17.7151 6.58984 17.5256 7.00402 17.189 7.33599C15.8254 8.68365 14.46 10.0295 13.079 11.3596C12.7374 11.6885 12.2972 11.8403 11.8172 11.6642C11.2976 11.4737 11.0925 11.0461 11.056 10.538C11.0272 10.1355 11.0395 9.72988 11.04 9.32603C11.04 9.20654 11.0213 9.13916 10.8751 9.11669C8.46807 8.75418 6.23178 9.20878 4.16582 10.4706C3.22007 11.0483 2.40538 11.7743 1.71856 12.6377C1.64823 12.7262 1.58019 12.8165 1.50621 12.9018C1.28883 13.1534 0.981954 13.236 0.709325 13.1197C0.40747 12.9912 0.23074 12.7077 0.289193 12.3749C0.381896 11.8448 0.463183 11.3089 0.612512 10.7932C1.40026 8.07541 2.989 5.91601 5.37918 4.34779C7.01633 3.27371 8.82929 2.66322 10.7948 2.51363C10.9939 2.49835 11.0528 2.43501 11.0432 2.24275C11.0286 1.94402 11.0391 1.64394 11.0473 1.34476C11.0647 0.705972 11.3145 0.21812 11.9679 -0.00109863H12.3789L12.3785 -0.000200195Z" fill="#898BA2"/>
</svg>
