<svg width="22" height="22" viewBox="0 0 22 22" fill="none" xmlns="http://www.w3.org/2000/svg">
<path d="M21.9578 5.0802L14.2413 12.7967C13.3809 13.6549 12.2153 14.1369 11 14.1369C9.78474 14.1369 8.61908 13.6549 7.75867 12.7967L0.0421667 5.0802C0.0293333 5.22503 0 5.35612 0 5.50003V16.5C0.00145554 17.7152 0.484808 18.8801 1.34403 19.7393C2.20326 20.5986 3.3682 21.0819 4.58333 21.0834H17.4167C18.6318 21.0819 19.7967 20.5986 20.656 19.7393C21.5152 18.8801 21.9985 17.7152 22 16.5V5.50003C22 5.35612 21.9707 5.22503 21.9578 5.0802Z" fill="#898BA2"/>
<path d="M12.9452 11.5005L21.318 3.12671C20.9124 2.45417 20.3403 1.89749 19.657 1.51038C18.9736 1.12326 18.2021 0.918772 17.4167 0.916626H4.58334C3.79796 0.918772 3.02638 1.12326 2.34303 1.51038C1.65968 1.89749 1.08761 2.45417 0.682007 3.12671L9.05484 11.5005C9.57145 12.015 10.2709 12.3039 11 12.3039C11.7291 12.3039 12.4286 12.015 12.9452 11.5005V11.5005Z" fill="#898BA2"/>
</svg>
