<svg width="13" height="16" viewBox="0 0 13 16" fill="none" xmlns="http://www.w3.org/2000/svg">
<path fill-rule="evenodd" clip-rule="evenodd" d="M7.80002 1.9333C7.80002 1.21533 8.38205 0.633301 9.10002 0.633301C9.81799 0.633301 10.4 1.21533 10.4 1.9333V2.39304C11.8678 2.58861 13 3.84538 13 5.36661V12.3666C13 14.0235 11.6569 15.3666 10 15.3666H3C1.34315 15.3666 0 14.0235 0 12.3666V5.36661C0 3.84536 1.13228 2.58857 2.60004 2.39304V1.9333C2.60004 1.21533 3.18207 0.633301 3.90004 0.633301C4.61801 0.633301 5.20004 1.21533 5.20004 1.9333V2.36661H7.80002V1.9333ZM2.60004 6.70003C2.60004 6.22138 2.98806 5.83336 3.46671 5.83336H7.80004C8.27869 5.83336 8.66671 6.22138 8.66671 6.70003C8.66671 7.17868 8.27869 7.5667 7.80004 7.5667H3.46671C2.98806 7.5667 2.60004 7.17868 2.60004 6.70003ZM3.46671 9.30009C2.98806 9.30009 2.60004 9.68811 2.60004 10.1668C2.60004 10.6454 2.98806 11.0334 3.46671 11.0334H6.06671C6.54536 11.0334 6.93338 10.6454 6.93338 10.1668C6.93338 9.68811 6.54536 9.30009 6.06671 9.30009H3.46671Z" fill="#898BA2"/>
</svg>
