<svg width="23" height="23" viewBox="0 0 23 23" fill="none" xmlns="http://www.w3.org/2000/svg">
<path d="M11.5 0.189087C5.26326 0.189087 0.189148 5.2632 0.189148 11.4999C0.189148 17.7367 5.26326 22.8108 11.5 22.8108C17.7367 22.8108 22.8109 17.7367 22.8109 11.4999C22.8109 5.2632 17.7367 0.189087 11.5 0.189087ZM17.2136 6.35187L14.6643 12.7251C14.4893 13.1628 14.2271 13.5604 13.8938 13.8937C13.5605 14.2271 13.1629 14.4892 12.7252 14.6643L6.35193 17.2136C6.27287 17.2452 6.18627 17.2529 6.10285 17.2358C6.01943 17.2187 5.94287 17.1775 5.88265 17.1173C5.82244 17.0571 5.78122 16.9805 5.76411 16.8971C5.747 16.8137 5.75474 16.7271 5.78639 16.648L8.33568 10.2748C8.51073 9.83707 8.77287 9.43949 9.10621 9.10615C9.43955 8.77281 9.83713 8.51066 10.2748 8.33562L16.6481 5.78633C16.7271 5.75468 16.8137 5.74694 16.8972 5.76405C16.9806 5.78116 17.0571 5.82238 17.1174 5.88259C17.1776 5.94281 17.2188 6.01937 17.2359 6.10279C17.253 6.18621 17.2453 6.27281 17.2136 6.35187Z" fill="#F55463"/>
</svg>
