<svg width="22" height="20" viewBox="0 0 22 20" fill="none" xmlns="http://www.w3.org/2000/svg">
<g clip-path="url(#clip0_605_9928)">
<path d="M0 11.208C0.0412435 11.0147 0.0790501 10.8178 0.123731 10.6282C0.598032 8.59925 2.17903 7.24288 4.11748 7.21687C5.04202 7.20572 5.96313 7.21687 6.88767 7.21687C6.9736 7.21687 7.05608 7.21687 7.09389 7.21687C7.23824 7.78171 7.32417 8.33541 7.53039 8.83337C7.73317 9.32389 8.0528 9.75867 8.32432 10.2269C7.17638 10.6357 6.24496 11.4161 5.58506 12.5755C4.92517 13.7386 4.83581 15.0207 4.91142 16.3659C3.21012 16.2693 1.59475 15.8865 0.00343696 15.344C0.00343696 13.9653 0.00343696 12.5866 0.00343696 11.2117L0 11.208Z" fill="#898BA2"/>
<path d="M16.659 16.7893C16.659 17.3987 16.6486 18.0119 16.6658 18.6213C16.6727 18.8257 16.6005 18.9223 16.439 19.0003C15.6176 19.4017 14.7583 19.6432 13.8716 19.7956C11.2182 20.249 8.62677 19.9108 6.07654 19.0784C5.66754 18.9446 5.66754 18.9446 5.66754 18.4838C5.66754 17.369 5.6538 16.2542 5.67442 15.143C5.7191 12.8353 7.40665 10.9327 9.541 10.8324C10.6683 10.7804 11.8025 10.7878 12.9298 10.8398C14.5349 10.9141 16.0781 12.3411 16.5009 14.0431C16.6761 14.7491 16.6624 15.4663 16.6624 16.1835C16.6624 16.3842 16.6624 16.5849 16.6624 16.7856L16.659 16.7893Z" fill="#898BA2"/>
<path d="M17.4082 16.4549C17.4082 15.8938 17.4289 15.4218 17.4048 14.9536C17.2879 12.8057 16.0025 10.9848 14.1156 10.2713C14.0641 10.2527 14.0125 10.2267 13.93 10.1933C14.6862 9.36087 15.0986 8.37611 15.1433 7.2204C15.2051 7.21297 15.2464 7.20554 15.2876 7.20554C16.1881 7.20554 17.092 7.19067 17.9925 7.21297C20.0994 7.26128 21.8797 9.11189 21.9725 11.3899C22.0241 12.6422 21.9897 13.8945 21.9863 15.1505C21.9863 15.2174 21.9141 15.3215 21.8557 15.3438C21.237 15.5816 20.6287 15.8677 19.9928 16.0201C19.1645 16.2171 18.3156 16.3062 17.4117 16.4549H17.4082Z" fill="#898BA2"/>
<path d="M7.93939 7.08287C7.93939 5.15793 9.37604 3.60089 11.1564 3.59717C12.9264 3.59346 14.3803 5.15793 14.3871 7.07544C14.394 9.00037 12.9367 10.5723 11.153 10.5648C9.36917 10.5574 7.93939 9.01152 7.93939 7.08287Z" fill="#898BA2"/>
<path d="M2.27527 3.48552C2.27527 1.70923 3.54351 0.174488 5.14857 0.0184125C6.84987 -0.148812 8.35869 1.0552 8.66802 2.82406C8.6852 2.93183 8.69895 3.03588 8.7127 3.14364C8.75394 3.46323 8.70583 3.70477 8.44462 3.95004C7.80878 4.54833 7.41697 5.32871 7.25543 6.228C7.22793 6.37664 7.15919 6.46583 7.03546 6.53644C4.8908 7.79619 2.27871 6.12395 2.27527 3.48552Z" fill="#898BA2"/>
<path d="M19.7179 3.48201C19.7179 5.95321 17.3704 7.65889 15.2876 6.70014C15.212 6.6667 15.1295 6.56636 15.1158 6.48461C14.9233 5.22857 14.3493 4.23637 13.3801 3.51917C13.2529 3.42627 13.2736 3.3185 13.2839 3.19587C13.4179 1.38985 14.8236 -0.00740267 16.5009 2.95112e-05C18.2846 0.00746169 19.7179 1.56079 19.7179 3.48201Z" fill="#898BA2"/>
</g>
<defs>
<clipPath id="clip0_605_9928">
<rect width="22" height="20" fill="white"/>
</clipPath>
</defs>
</svg>
