<svg width="28" height="18" viewBox="0 0 28 18" fill="none" xmlns="http://www.w3.org/2000/svg">
<g clip-path="url(#clip0_605_9900)">
<path d="M27.0667 13.7057C26.9173 14.0362 26.6653 14.152 26.3161 14.148C25.1603 14.1351 25.8704 14.1447 24.7147 14.1423C24.3032 14.1423 24.0333 13.9083 23.9198 13.4925C23.0455 10.2927 21.9263 7.18455 20.6648 4.12866C20.5777 3.91716 20.4812 3.70566 20.3645 3.51105C20.0892 3.05266 20.2214 2.74386 20.7363 2.53477C21.9045 2.0603 23.1249 1.74506 24.3701 1.59468C25.6223 1.44349 25.018 1.3864 26.2749 1.28025C26.6319 1.24969 26.8948 1.37836 27.0674 1.70324L27.0667 13.7057Z" fill="#898BA2"/>
<path d="M0.933319 0.495413C1.11687 0.0635678 1.43421 -0.0361507 1.87365 0.0104918C3.51476 0.184999 3.30087 0.279893 4.89843 0.743905C5.33087 0.869358 5.74076 1.09131 6.1491 1.29477C6.50921 1.4741 6.58387 1.8014 6.5131 2.18661C6.31399 3.26984 6.1771 4.36996 5.9111 5.4355C5.36899 7.61001 4.76076 9.76682 4.17432 11.9293C3.92232 12.8573 3.90832 12.8613 2.97887 12.8613C1.93899 12.8613 2.76654 12.8509 1.72665 12.8669C1.37121 12.8726 1.10521 12.7656 0.933319 12.4391V0.495413Z" fill="#898BA2"/>
<path d="M7.54366 3.8675H9.97966C9.89722 3.97044 9.84044 4.04281 9.78211 4.11278C9.11088 4.92179 8.55633 5.79995 8.31211 6.85182C8.10366 7.7517 8.36499 8.54302 9.03077 8.85826C9.97033 9.30297 10.9363 9.36891 11.8448 8.7714C12.2165 8.52693 12.5261 8.18194 12.8652 7.88359C12.9298 7.82649 12.9897 7.74929 13.0651 7.72275C13.4999 7.57398 13.9378 7.43727 14.3562 7.22818C14.3741 7.2314 14.3974 7.22818 14.4091 7.23944C16.317 8.85825 18.2381 10.461 20.1211 12.1096C20.6329 12.5583 21.0451 13.1349 21.4713 13.6793C21.6743 13.9391 21.77 14.2648 21.644 14.6154C21.4651 15.1148 20.9105 15.2467 20.5473 14.8719C19.4335 13.7203 18.3198 12.5696 17.2076 11.4172C17.0294 11.2322 16.8249 11.0448 16.5737 11.1494C16.387 11.2274 16.2058 11.4011 16.1 11.5812C15.9639 11.8136 16.0837 12.0501 16.2579 12.2326C16.8669 12.8679 17.479 13.5 18.0919 14.1313C18.6348 14.691 19.1784 15.2483 19.7167 15.8008C19.4164 16.3114 18.9264 16.5406 18.4108 16.4055C18.2894 16.3733 18.1736 16.2728 18.0802 16.1771C17.1212 15.1928 16.1669 14.2045 15.2126 13.2145C15.0267 13.0215 14.8268 12.8695 14.5437 12.9451C14.0467 13.0778 13.9098 13.6592 14.2901 14.0581C14.903 14.703 15.526 15.3392 16.1443 15.9785C16.4197 16.2624 16.7036 16.5382 16.9633 16.8365C17.0279 16.9105 17.0613 17.073 17.0302 17.1655C16.7977 17.8402 16.1031 17.9962 15.617 17.4936C14.84 16.691 14.0677 15.8828 13.2844 15.0866C12.9049 14.7014 12.3643 14.8349 12.2204 15.3335C12.1411 15.6102 12.2578 15.8193 12.4398 16.0074C12.9974 16.5824 13.5535 17.159 14.1089 17.7356C14.175 17.804 14.2364 17.8772 14.3414 17.9946C13.5816 18.0308 12.9407 17.8305 12.3908 17.3954C10.6011 15.9785 8.81688 14.5535 7.05288 13.1027C6.54655 12.6862 6.11411 12.1739 5.65833 11.6946C5.60155 11.6351 5.57044 11.4944 5.59611 11.4147C6.36999 8.99095 6.98366 6.52372 7.49077 4.02754C7.50088 3.97928 7.52033 3.93345 7.54133 3.8667L7.54366 3.8675Z" fill="#898BA2"/>
<path d="M22.5167 12.6128C22.4801 12.5855 22.435 12.5654 22.407 12.53C21.2357 11.0897 19.8154 9.93006 18.4232 8.73826C17.3981 7.8609 16.4002 6.94815 15.386 6.05632C15.0842 5.79094 14.7257 5.71373 14.3531 5.84401C14.0233 5.95981 13.7138 6.13432 13.3863 6.25977C13.1896 6.33617 12.9663 6.34421 12.7734 6.42785C12.5689 6.51711 12.3643 6.63372 12.2002 6.7849C12.0073 6.96343 11.8736 7.20951 11.6861 7.39608C11.1876 7.89146 10.6097 7.97992 9.96101 7.74268C9.67323 7.63734 9.56978 7.44755 9.64056 7.17011C9.71678 6.87095 9.80001 6.56456 9.94078 6.29435C10.675 4.88543 11.7678 3.83034 13.0869 3.02696C13.8732 2.54847 14.7171 2.62085 15.5384 2.93046C16.5503 3.31164 17.549 3.72982 18.5539 4.1295C18.7437 4.20509 18.9319 4.30481 19.1302 4.33697C19.5284 4.40131 19.7175 4.65463 19.8489 5.01892C20.6757 7.31245 21.5118 9.60276 22.3432 11.8947C22.4241 12.1174 22.4957 12.3434 22.5711 12.5686C22.5532 12.5831 22.5346 12.5975 22.5167 12.6128Z" fill="#898BA2"/>
</g>
<defs>
<clipPath id="clip0_605_9900">
<rect width="28" height="18" fill="white"/>
</clipPath>
</defs>
</svg>
