<svg width="34" height="38" viewBox="0 0 34 38" fill="none" xmlns="http://www.w3.org/2000/svg">
<path d="M33.9679 11.8578C33.9893 15.4054 30.2657 17.7455 27.1396 16.1477C25.816 15.4715 24.9647 14.3974 24.6003 12.9434C24.4965 12.53 24.465 12.09 24.4583 11.6616C24.4375 10.3234 23.8079 9.40123 22.6732 8.77126C21.6845 8.22233 20.7159 8.24276 19.7366 8.76921C19.4607 8.91768 19.1927 9.08318 18.9067 9.20713C17.4706 9.83166 16.0619 9.75674 14.6868 9.00826C14.1536 8.71814 13.6177 8.47228 12.9921 8.42937C11.2124 8.30678 9.65768 9.80918 9.55051 11.5561C9.41654 13.7354 10.8975 15.3993 13.0035 15.3747C13.7048 15.3666 14.2889 15.0369 14.8784 14.7114C16.5315 13.7988 18.8531 14.1182 20.2102 15.4326C21.2625 16.4522 21.7729 17.6903 21.7582 19.1716C21.7368 21.3864 23.7221 22.6 25.2788 22.5197C25.7604 22.4951 26.2722 22.3126 26.6969 22.0695C27.7331 21.4763 28.8289 21.208 29.9817 21.4204C31.7809 21.7521 33.0924 22.7832 33.7013 24.5669C34.3296 26.4064 33.9659 28.0914 32.653 29.5134C31.8378 30.3967 30.8029 30.8741 29.6013 30.9627C28.4672 31.0464 27.4478 30.7338 26.4886 30.1291C25.605 29.5713 24.6921 29.606 23.7851 30.0964C23.5982 30.1972 23.408 30.2939 23.2258 30.4028C22.213 31.0103 21.7214 31.9107 21.7428 33.1087C21.7696 34.6458 21.1982 35.9214 20.0394 36.9001C18.3407 38.3351 15.8362 38.365 14.0846 36.9845C12.9124 36.0603 12.329 34.8276 12.2493 33.3232C12.2218 32.809 12.1957 32.2587 12.0041 31.7949C11.2445 29.9506 8.94632 29.2301 7.27375 30.2612C4.73709 31.8249 1.44554 30.7338 0.357064 27.9395C-0.632278 25.3985 0.625666 22.4979 3.23399 21.6391C5.9716 20.7374 8.69379 22.2227 9.39645 25.0634C9.53577 25.6259 9.46276 26.2409 9.57261 26.8144C9.65969 27.2707 9.78495 27.7699 10.0502 28.1309C10.9002 29.2873 12.7516 30.2857 14.441 29.1552C16.0606 28.0716 17.8136 28.0832 19.4727 29.0939C20.7233 29.856 21.8687 29.7627 23.049 29.006C24.0222 28.3822 24.4891 27.5043 24.4603 26.3336C24.4456 25.7308 24.4402 25.1444 24.1689 24.5764C23.5085 23.1953 21.3262 21.9551 19.4828 23.0945C17.7586 24.1596 15.9829 24.0834 14.309 22.9562C12.9881 22.0668 12.3189 20.751 12.2553 19.1382C12.2272 18.4156 12.1796 17.6992 11.7583 17.0883C10.8011 15.7016 8.89273 14.9402 7.15787 15.9829C4.66408 17.4819 1.46898 16.3704 0.381847 13.6333C-0.320136 11.866 -0.0455054 10.2035 1.15148 8.759C2.30761 7.36352 3.82277 6.76828 5.60922 7.1129C6.19867 7.22663 6.7841 7.47113 7.31729 7.75921C9.14124 8.74538 11.4743 7.85184 12.0999 5.85159C12.2519 5.36531 12.2225 4.82115 12.2854 4.30492C12.5319 2.27879 13.6318 0.923491 15.5046 0.266957C18.2289 -0.687879 21.0663 0.973208 21.6564 3.8384C21.7629 4.356 21.7508 4.89811 21.8051 5.42797C21.9585 6.92969 23.3008 7.87567 24.5012 8.14265C25.3411 8.32926 26.096 8.12153 26.8349 7.6843C28.9736 6.41822 31.6041 6.96987 33.0804 8.98851C33.5961 9.69408 34.0155 10.6135 33.9686 11.8537L33.9679 11.8578Z" fill="#F55463"/>
</svg>
