<svg width="12" height="16" viewBox="0 0 12 16" fill="none" xmlns="http://www.w3.org/2000/svg">
<path fill-rule="evenodd" clip-rule="evenodd" d="M6.02115 0.942153C7.61643 0.949212 9.14113 1.5845 10.2564 2.69979C11.3788 3.82214 12.007 5.33978 11.9999 6.91389V6.94918C11.9576 9.08799 10.7576 11.0574 9.26113 12.5962C8.41408 13.4644 7.47526 14.2338 6.45173 14.8833C6.17644 15.1162 5.77409 15.1162 5.4988 14.8833C3.98116 13.895 2.63999 12.6527 1.55293 11.2056C0.599997 9.94917 0.0564703 8.43859 0 6.86448C0.0141176 3.58214 2.71057 0.935094 6.02115 0.942153ZM6.02116 8.89034C6.52233 8.89034 7.00233 8.69975 7.35527 8.35387C7.72233 7.99388 7.92774 7.51458 7.92774 7.0127C7.92774 5.968 7.07292 5.12801 6.02116 5.12801C4.9694 5.12801 4.12234 5.968 4.12234 7.0127C4.12234 8.04399 4.95528 8.87622 5.99998 8.89034H6.02116Z" fill="#898BA2"/>
</svg>
