<svg width="21" height="20" viewBox="0 0 21 20" fill="none" xmlns="http://www.w3.org/2000/svg">
<g clip-path="url(#clip0_605_9946)">
<path d="M12.7265 6.58229C12.7371 6.51834 12.7498 6.47945 12.7491 6.44055C12.7305 5.23221 12.7498 4.02189 12.682 2.81618C12.5984 1.33821 11.4831 0.219519 10.0021 0.0771284C9.35951 0.0158212 8.71027 0 8.06369 0C6.42068 0 4.77767 0.00856983 3.13466 0.0355977C1.90588 0.0553743 0.977831 0.603184 0.379045 1.67705C0.131432 2.1207 0.0643835 2.61116 0.0431404 3.10425C0.014595 3.76941 0.00264645 4.43587 0.00198269 5.10168C-0.00067234 8.57246 -0.00399113 12.0426 0.00862122 15.5134C0.0112772 16.2016 0.0318556 16.8984 0.138734 17.5761C0.333904 18.8141 1.4319 19.8029 2.68855 19.9156C3.36501 19.9763 4.04678 19.9987 4.72589 19.9993C6.3523 20.0013 7.97872 19.9895 9.60513 19.9644C10.8319 19.9453 11.7653 19.4074 12.372 18.3388C12.6276 17.8885 12.7046 17.3895 12.7166 16.8885C12.7425 15.7705 12.7398 14.6518 12.7471 13.5337C12.7471 13.5034 12.7338 13.4724 12.7205 13.4171C12.6203 13.4171 12.5227 13.4171 12.4251 13.4171C11.1306 13.4171 9.83548 13.423 8.54099 13.4157C6.77451 13.4052 5.40035 12.2489 5.09299 10.527C4.74779 8.5929 6.28724 6.65876 8.26749 6.59745C9.65226 6.55394 11.039 6.58426 12.4251 6.58163C12.5227 6.58163 12.6203 6.58163 12.7252 6.58163L12.7265 6.58229Z" fill="#898BA2"/>
<path d="M15.2018 8.92946C15.1174 8.92946 15.0331 8.92946 14.9487 8.92946C12.8111 8.92946 10.6729 8.92838 8.53532 8.92999C7.90756 8.92999 7.43545 9.26577 7.32826 9.77933C7.18401 10.4707 7.708 11.0625 8.48515 11.0726C9.07642 11.0807 9.66826 11.0742 10.2595 11.0742C11.8344 11.0742 13.4092 11.0742 14.984 11.0742H15.207C15.2161 11.0919 15.2258 11.1096 15.2349 11.1278C14.9863 11.3538 14.732 11.5744 14.4902 11.8063C14.1567 12.1265 14.0563 12.5089 14.2194 12.9309C14.3825 13.3534 14.7223 13.5864 15.1967 13.6308C15.524 13.6614 15.8228 13.5687 16.0571 13.3507C16.9933 12.4805 17.929 11.6108 18.8532 10.7294C19.2854 10.317 19.2792 9.67865 18.8441 9.26469C17.929 8.39447 17.0064 7.53013 16.0776 6.67222C15.6232 6.2529 14.9242 6.26629 14.4817 6.68079C14.0398 7.09528 14.0295 7.74434 14.4709 8.17704C14.716 8.41696 14.98 8.63974 15.2355 8.87055C15.2241 8.89036 15.2132 8.90964 15.2018 8.92946Z" fill="#898BA2"/>
</g>
<defs>
<clipPath id="clip0_605_9946">
<rect width="21" height="20" fill="white" transform="matrix(-1 0 0 1 21 0)"/>
</clipPath>
</defs>
</svg>
