<svg width="149" height="38" viewBox="0 0 149 38" fill="none" xmlns="http://www.w3.org/2000/svg">
<g clip-path="url(#clip0_605_7758)">
<path d="M33.9679 11.8578C33.9893 15.4054 30.2657 17.7455 27.1396 16.1477C25.816 15.4715 24.9647 14.3974 24.6003 12.9434C24.4965 12.53 24.465 12.09 24.4583 11.6616C24.4375 10.3234 23.8079 9.40123 22.6732 8.77126C21.6845 8.22233 20.7159 8.24276 19.7366 8.76921C19.4607 8.91768 19.1927 9.08318 18.9067 9.20713C17.4706 9.83166 16.0619 9.75674 14.6868 9.00826C14.1536 8.71814 13.6177 8.47228 12.9921 8.42937C11.2124 8.30678 9.65768 9.80918 9.55051 11.5561C9.41654 13.7354 10.8975 15.3993 13.0035 15.3747C13.7048 15.3666 14.2889 15.0369 14.8784 14.7114C16.5315 13.7988 18.8531 14.1182 20.2102 15.4326C21.2625 16.4522 21.7729 17.6903 21.7582 19.1716C21.7368 21.3864 23.7221 22.6 25.2788 22.5197C25.7604 22.4951 26.2722 22.3126 26.6969 22.0695C27.7331 21.4763 28.8289 21.208 29.9817 21.4204C31.7809 21.7521 33.0924 22.7832 33.7013 24.5669C34.3296 26.4064 33.9659 28.0914 32.653 29.5134C31.8378 30.3967 30.8029 30.8741 29.6013 30.9627C28.4672 31.0464 27.4478 30.7338 26.4886 30.1291C25.605 29.5713 24.6921 29.606 23.7851 30.0964C23.5982 30.1972 23.408 30.2939 23.2258 30.4028C22.213 31.0103 21.7214 31.9107 21.7428 33.1087C21.7696 34.6458 21.1982 35.9214 20.0394 36.9001C18.3407 38.3351 15.8362 38.365 14.0846 36.9845C12.9124 36.0603 12.329 34.8276 12.2493 33.3232C12.2218 32.809 12.1957 32.2587 12.0041 31.7949C11.2445 29.9506 8.94632 29.2301 7.27375 30.2612C4.73709 31.8249 1.44554 30.7338 0.357064 27.9395C-0.632278 25.3985 0.625666 22.4979 3.23399 21.6391C5.9716 20.7374 8.69379 22.2227 9.39645 25.0634C9.53577 25.6259 9.46276 26.2409 9.57261 26.8144C9.65969 27.2707 9.78495 27.7699 10.0502 28.1309C10.9002 29.2873 12.7516 30.2857 14.441 29.1552C16.0606 28.0716 17.8136 28.0832 19.4727 29.0939C20.7233 29.856 21.8687 29.7627 23.049 29.006C24.0222 28.3822 24.4891 27.5043 24.4603 26.3336C24.4456 25.7308 24.4402 25.1444 24.1689 24.5764C23.5085 23.1953 21.3262 21.9551 19.4828 23.0945C17.7586 24.1596 15.9829 24.0834 14.309 22.9562C12.9881 22.0668 12.3189 20.751 12.2553 19.1382C12.2272 18.4156 12.1796 17.6992 11.7583 17.0883C10.8011 15.7016 8.89273 14.9402 7.15787 15.9829C4.66408 17.4819 1.46898 16.3704 0.381847 13.6333C-0.320136 11.866 -0.0455054 10.2035 1.15148 8.759C2.30761 7.36352 3.82277 6.76828 5.60922 7.1129C6.19867 7.22663 6.7841 7.47113 7.31729 7.75921C9.14124 8.74538 11.4743 7.85184 12.0999 5.85159C12.2519 5.36531 12.2225 4.82115 12.2854 4.30492C12.5319 2.27879 13.6318 0.923491 15.5046 0.266957C18.2289 -0.687879 21.0663 0.973208 21.6564 3.8384C21.7629 4.356 21.7508 4.89811 21.8051 5.42797C21.9585 6.92969 23.3008 7.87567 24.5012 8.14265C25.3411 8.32926 26.096 8.12153 26.8349 7.6843C28.9736 6.41822 31.6041 6.96987 33.0804 8.98851C33.5961 9.69408 34.0155 10.6135 33.9686 11.8537L33.9679 11.8578Z" fill="#F55463"/>
</g>
<g clip-path="url(#clip1_605_7758)">
<path d="M53.1908 26.748H43.9391C43.4207 26.748 43 26.3613 43 25.8849C43 25.4085 43.4207 25.0219 43.9391 25.0219H53.1908C53.3147 25.0219 53.4349 24.977 53.5251 24.8941L54.5581 23.9448C54.6445 23.8654 54.697 23.7514 54.697 23.6375V21.5351C54.697 21.4522 54.6632 21.3728 54.5956 21.3142L53.5439 20.3475C53.48 20.2888 53.3936 20.2543 53.3035 20.2543H46.4069C45.8059 20.2543 45.2425 20.0403 44.8143 19.6502L43.2742 18.2348C43.0977 18.0725 43 17.855 43 17.6237V16.5811C43 16.3671 43.0864 16.16 43.2442 16.0012L46.3205 12.8838C46.8727 12.3211 47.6653 12 48.4879 12H54.6332C55.1516 12 55.5723 12.3867 55.5723 12.8631C55.5723 13.3395 55.1516 13.7261 54.6332 13.7261H48.4879C48.1912 13.7261 47.9057 13.84 47.7066 14.0437L44.8781 16.9125V17.2647L46.144 18.4281C46.2116 18.4902 46.3093 18.5282 46.4069 18.5282H53.3035C53.897 18.5282 54.4529 18.7388 54.8736 19.1254L55.9253 20.0921C56.346 20.4787 56.5752 20.9896 56.5752 21.5351V23.6375C56.5752 24.214 56.331 24.756 55.8878 25.1634L54.8548 26.1128C54.4116 26.5201 53.8218 26.7445 53.1945 26.7445L53.1908 26.748Z" fill="#F55463"/>
<path d="M69.9776 25.0529H61.8152C61.7514 25.0529 61.6913 25.0288 61.6462 24.9873L61.1842 24.5627C61.1391 24.5213 61.1165 24.4661 61.1165 24.4074V20.2336H68.0056C68.5239 20.2336 68.9446 19.847 68.9446 19.3705C68.9446 18.8941 68.5239 18.5075 68.0056 18.5075H61.1165V16.9298C61.1165 16.8331 61.1541 16.7434 61.2255 16.6778L64.1854 13.8366C64.2605 13.7641 64.3657 13.7227 64.4747 13.7227H69.9776C70.496 13.7227 70.9167 13.336 70.9167 12.8596C70.9167 12.3832 70.496 12 69.9776 12H64.4747C63.8586 12 63.2576 12.2348 62.8294 12.6456L59.8695 15.4868C59.46 15.8769 59.2384 16.3913 59.2384 16.9333V24.4108C59.2384 24.9287 59.46 25.4189 59.8582 25.7848L60.3202 26.2094C60.7184 26.5754 61.2518 26.7791 61.8152 26.7791H69.9776C70.496 26.7791 70.9167 26.3924 70.9167 25.916C70.9167 25.4396 70.496 25.0529 69.9776 25.0529Z" fill="#F55463"/>
<path d="M85.9605 27C85.4422 27 85.0215 26.6133 85.0215 26.1369V16.2704C85.0215 16.0598 84.9689 15.8631 84.8712 15.7077C84.3904 14.9344 83.41 14.2647 82.8654 13.9333C82.6437 13.7986 82.3921 13.7296 82.1329 13.7296H79.5073C79.1467 13.7296 78.8086 13.8228 78.5269 13.9954C77.1821 14.8239 75.6308 16.6433 75.026 17.389C74.857 17.5961 74.7706 17.8412 74.7706 18.1001V26.1369C74.7706 26.6133 74.3499 27 73.8315 27C73.3132 27 72.8925 26.6133 72.8925 26.1369V18.1001C72.8925 17.4649 73.1103 16.8608 73.5235 16.3533C74.3461 15.3418 75.9576 13.5052 77.4826 12.5593C78.0761 12.1933 78.7748 12 79.511 12H82.1367C82.7639 12 83.3762 12.1692 83.9059 12.4902C84.736 12.9977 85.8629 13.8159 86.5052 14.8481C86.7644 15.2658 86.9034 15.7595 86.9034 16.2704V26.1369C86.9034 26.6133 86.4827 27 85.9643 27H85.9605Z" fill="#F55463"/>
<path d="M104.438 26.4787H101.977C101.587 26.4787 101.234 26.2543 101.098 25.916L95.9184 13.1668C95.7381 12.7215 95.9823 12.2244 96.4706 12.0552C96.9552 11.8895 97.4961 12.1139 97.6801 12.5627L102.631 24.7526H103.795L108.934 12.5523C109.122 12.107 109.666 11.8861 110.147 12.0587C110.632 12.2313 110.872 12.7319 110.684 13.1737L105.313 25.9263C105.174 26.2578 104.825 26.4787 104.438 26.4787Z" fill="#F55463"/>
<path d="M124.034 26.6893H113.318C112.799 26.6893 112.378 26.3026 112.378 25.8262V21.2658C112.378 21.1864 112.39 21.1105 112.412 21.0345C112.81 19.7158 114.497 18.7043 114.685 18.5938C114.835 18.5075 115.008 18.4591 115.184 18.4591H122.498C122.498 18.4591 122.858 18.4488 123.118 18.1933C123.392 17.9241 123.523 17.4407 123.501 16.7952C123.444 15.2278 121.777 14.1991 121.063 13.8297C120.928 13.7572 120.77 13.7227 120.605 13.7227H113.073C112.555 13.7227 112.134 13.336 112.134 12.8596C112.134 12.3832 112.559 12 113.077 12H120.608C121.093 12 121.57 12.1139 121.987 12.3314C122.975 12.8458 125.289 14.3026 125.379 16.7399C125.42 17.9033 125.105 18.8078 124.436 19.4258C123.613 20.1887 122.592 20.1922 122.475 20.1887H115.474C115.008 20.4994 114.433 20.9965 114.253 21.4039V24.9632H124.03C124.549 24.9632 124.969 25.3498 124.969 25.8262C124.969 26.3026 124.549 26.6893 124.03 26.6893H124.034Z" fill="#F55463"/>
<path d="M128.591 26.8861C129.186 26.8861 129.669 26.4425 129.669 25.8953C129.669 25.3481 129.186 24.9045 128.591 24.9045C127.995 24.9045 127.512 25.3481 127.512 25.8953C127.512 26.4425 127.995 26.8861 128.591 26.8861Z" fill="#F55463"/>
<path d="M140.389 26.7583H138.12C134.473 26.7583 131.505 24.0311 131.505 20.6789V18.0794C131.505 14.7273 134.473 12 138.116 12H140.385C144.033 12 147 14.7273 147 18.0794V20.6789C147 24.0311 144.033 26.7583 140.385 26.7583H140.389ZM138.12 13.7296C135.51 13.7296 133.384 15.6835 133.384 18.0829V20.6824C133.384 23.0817 135.506 25.0357 138.12 25.0357H140.389C143 25.0357 145.126 23.0817 145.126 20.6824V18.0829C145.126 15.6835 143.003 13.7296 140.389 13.7296H138.12Z" fill="#F55463"/>
</g>
<defs>
<clipPath id="clip0_605_7758">
<rect width="34" height="38" fill="white"/>
</clipPath>
<clipPath id="clip1_605_7758">
<rect width="104" height="15" fill="white" transform="translate(43 12)"/>
</clipPath>
</defs>
</svg>
