<svg width="30" height="30" viewBox="0 0 30 30" fill="none" xmlns="http://www.w3.org/2000/svg">
<path d="M26.429 13.7216C26.1394 11.1291 24.9769 8.71219 23.1324 6.86765C21.2878 5.0231 18.8709 3.8606 16.2784 3.57102V2.21591C16.2784 1.51278 15.7031 0.9375 15 0.9375C14.2969 0.9375 13.7216 1.51278 13.7216 2.21591V3.57102C11.1291 3.8606 8.71219 5.0231 6.86765 6.86765C5.0231 8.71219 3.8606 11.1291 3.57102 13.7216H2.21591C1.51278 13.7216 0.9375 14.2969 0.9375 15C0.9375 15.7031 1.51278 16.2784 2.21591 16.2784H3.57102C3.8606 18.8709 5.0231 21.2878 6.86765 23.1324C8.71219 24.9769 11.1291 26.1394 13.7216 26.429V27.7841C13.7216 28.4872 14.2969 29.0625 15 29.0625C15.7031 29.0625 16.2784 28.4872 16.2784 27.7841V26.429C18.8709 26.1394 21.2878 24.9769 23.1324 23.1324C24.9769 21.2878 26.1394 18.8709 26.429 16.2784H27.7841C28.4872 16.2784 29.0625 15.7031 29.0625 15C29.0625 14.2969 28.4872 13.7216 27.7841 13.7216H26.429ZM15 23.9489C10.0526 23.9489 6.05114 19.9474 6.05114 15C6.05114 10.0526 10.0526 6.05114 15 6.05114C19.9474 6.05114 23.9489 10.0526 23.9489 15C23.9489 19.9474 19.9474 23.9489 15 23.9489Z" fill="#EFEFF0"/>
<circle cx="14.9999" cy="14.9999" r="5.11364" fill="#AFB1B6"/>
</svg>
