<svg width="18" height="24" viewBox="0 0 18 24" fill="none" xmlns="http://www.w3.org/2000/svg">
<path fill-rule="evenodd" clip-rule="evenodd" d="M14.8604 6.91666C14.8604 10.2437 12.2377 12.9409 9.00248 12.9409C5.76722 12.9409 3.14453 10.2437 3.14453 6.91666C3.14453 3.58959 5.76722 0.892456 9.00248 0.892456C12.2377 0.892456 14.8604 3.58959 14.8604 6.91666ZM14.0305 16.3351C15.893 16.7122 17.109 17.3275 17.6302 18.32C18.0216 19.0945 18.0216 20.0166 17.6302 20.7912C17.109 21.7837 15.9413 22.4387 14.0112 22.7761C13.1511 22.9495 12.2805 23.0623 11.4055 23.1135C10.5948 23.2029 9.78418 23.2029 8.96387 23.2029H7.48732C7.1785 23.1632 6.87933 23.1433 6.58981 23.1433C5.71476 23.0983 4.84397 22.9889 3.98414 22.8158C2.12156 22.4585 0.90558 21.8234 0.384445 20.8309C0.183268 20.4464 0.0772071 20.017 0.0756238 19.5804C0.0714305 19.1412 0.174283 18.7078 0.374794 18.32C0.886278 17.3275 2.10226 16.6824 3.98414 16.3351C4.84776 16.1656 5.72152 16.0561 6.59946 16.0076C8.20544 15.8781 9.81881 15.8781 11.4248 16.0076C12.2993 16.0585 13.1697 16.1679 14.0305 16.3351Z" fill="#898BA2"/>
</svg>
